<svg version="1.1" viewBox="0.0 0.0 600.0 371.0" fill="none" stroke="none" stroke-linecap="square" stroke-miterlimit="10" width="600" height="371" xmlns:xlink="http://www.w3.org/1999/xlink" xmlns="http://www.w3.org/2000/svg"><path fill="#ffffff" d="M0 0L600.0 0L600.0 371.0L0 371.0L0 0Z" fill-rule="nonzero"/><path stroke="#333333" stroke-width="1.0" stroke-linecap="butt" d="M84.5 300.5L581.5 300.5" fill-rule="nonzero"/><path stroke="#cccccc" stroke-width="1.0" stroke-linecap="butt" d="M84.5 246.5L581.5 246.5" fill-rule="nonzero"/><path stroke="#cccccc" stroke-width="1.0" stroke-linecap="butt" d="M84.5 192.5L581.5 192.5" fill-rule="nonzero"/><path stroke="#cccccc" stroke-width="1.0" stroke-linecap="butt" d="M84.5 139.5L581.5 139.5" fill-rule="nonzero"/><path stroke="#cccccc" stroke-width="1.0" stroke-linecap="butt" d="M84.5 85.5L581.5 85.5" fill-rule="nonzero"/><clipPath id="id_0"><path d="M84.55 85.416664L581.45 85.416664L581.45 300.45L84.55 300.45L84.55 85.416664Z" clip-rule="nonzero"/></clipPath><path stroke="#000000" stroke-width="2.0" stroke-linecap="butt" stroke-opacity="0.0" clip-path="url(#id_0)" d="M199.0 300.0L125.0 300.0L125.0 280.0C125.0 278.89542 125.89543 278.0 127.0 278.0L197.0 278.0C198.10457 278.0 199.0 278.89542 199.0 280.0Z" fill-rule="nonzero"/><path fill="#4285f4" clip-path="url(#id_0)" d="M199.0 300.0L125.0 300.0L125.0 280.0C125.0 278.89542 125.89543 278.0 127.0 278.0L197.0 278.0C198.10457 278.0 199.0 278.89542 199.0 280.0Z" fill-rule="nonzero"/><path stroke="#000000" stroke-width="2.0" stroke-linecap="butt" stroke-opacity="0.0" clip-path="url(#id_0)" d="M313.0 300.0L239.0 300.0L239.0 259.0C239.0 257.89542 239.89543 257.0 241.0 257.0L311.0 257.0C312.10458 257.0 313.0 257.89542 313.0 259.0Z" fill-rule="nonzero"/><path fill="#4285f4" clip-path="url(#id_0)" d="M313.0 300.0L239.0 300.0L239.0 259.0C239.0 257.89542 239.89543 257.0 241.0 257.0L311.0 257.0C312.10458 257.0 313.0 257.89542 313.0 259.0Z" fill-rule="nonzero"/><path stroke="#000000" stroke-width="2.0" stroke-linecap="butt" stroke-opacity="0.0" clip-path="url(#id_0)" d="M427.0 300.0L353.0 300.0L353.0 216.0C353.0 214.89543 353.89542 214.0 355.0 214.0L425.0 214.0C426.10458 214.0 427.0 214.89543 427.0 216.0Z" fill-rule="nonzero"/><path fill="#4285f4" clip-path="url(#id_0)" d="M427.0 300.0L353.0 300.0L353.0 216.0C353.0 214.89543 353.89542 214.0 355.0 214.0L425.0 214.0C426.10458 214.0 427.0 214.89543 427.0 216.0Z" fill-rule="nonzero"/><path stroke="#000000" stroke-width="2.0" stroke-linecap="butt" stroke-opacity="0.0" clip-path="url(#id_0)" d="M541.0 300.0L467.0 300.0L467.0 131.0C467.0 129.89543 467.89542 129.0 469.0 129.0L539.0 129.0C540.10455 129.0 541.0 129.89543 541.0 131.0Z" fill-rule="nonzero"/><path fill="#4285f4" clip-path="url(#id_0)" d="M541.0 300.0L467.0 300.0L467.0 131.0C467.0 129.89543 467.89542 129.0 469.0 129.0L539.0 129.0C540.10455 129.0 541.0 129.89543 541.0 131.0Z" fill-rule="nonzero"/><path fill="#000000" d="M321.45312 346.075L321.45312 345.075L325.07812 345.0594L325.07812 348.2469Q324.25 348.91876 323.35938 349.2625Q322.46875 349.59064 321.53125 349.59064Q320.26562 349.59064 319.21875 349.0594Q318.1875 348.5125 317.65625 347.4969Q317.14062 346.46564 317.14062 345.2Q317.14062 343.9344 317.65625 342.85626Q318.1875 341.7625 319.17188 341.2469Q320.15625 340.71564 321.4375 340.71564Q322.375 340.71564 323.125 341.0125Q323.875 341.3094 324.29688 341.85626Q324.73438 342.3875 324.95312 343.2625L323.9375 343.54376Q323.73438 342.8875 323.4375 342.5125Q323.15625 342.1375 322.625 341.91876Q322.09375 341.6844 321.45312 341.6844Q320.67188 341.6844 320.09375 341.91876Q319.53125 342.15314 319.17188 342.54376Q318.82812 342.9344 318.64062 343.40314Q318.3125 344.2 318.3125 345.1219Q318.3125 346.27814 318.70312 347.0594Q319.10938 347.825 319.85938 348.2Q320.60938 348.575 321.46875 348.575Q322.20312 348.575 322.90625 348.29376Q323.60938 347.9969 323.96875 347.6844L323.96875 346.075L321.45312 346.075ZM326.42188 349.45L326.42188 340.85626L329.67188 340.85626Q330.51562 340.85626 330.96875 340.9344Q331.60938 341.04376 332.03125 341.34064Q332.46875 341.6375 332.71875 342.16876Q332.98438 342.7 332.98438 343.34064Q332.98438 344.4344 332.28125 345.2Q331.59375 345.95 329.76562 345.95L327.5625 345.95L327.5625 349.45L326.42188 349.45ZM327.5625 344.95L329.78125 344.95Q330.89062 344.95 331.34375 344.54376Q331.8125 344.1219 331.8125 343.3719Q331.8125 342.84064 331.53125 342.46564Q331.26562 342.075 330.82812 341.95Q330.53125 341.8719 329.76562 341.8719L327.5625 341.8719L327.5625 344.95ZM340.0625 340.85626L341.20312 340.85626L341.20312 345.825Q341.20312 347.1219 340.90625 347.8875Q340.60938 348.6375 339.84375 349.1219Q339.07812 349.59064 337.84375 349.59064Q336.64062 349.59064 335.85938 349.1844Q335.09375 348.7625 334.76562 347.98126Q334.4375 347.1844 334.4375 345.825L334.4375 340.85626L335.57812 340.85626L335.57812 345.8094Q335.57812 346.9344 335.78125 347.46564Q336.0 347.9969 336.5 348.29376Q337.01562 348.575 337.75 348.575Q339.0 348.575 339.53125 348.0125Q340.0625 347.4344 340.0625 345.8094L340.0625 340.85626ZM342.875 347.59064L343.90625 347.4344Q344.0 348.0594 344.39062 348.3875Q344.79688 348.71564 345.53125 348.71564Q346.25 348.71564 346.59375 348.4344Q346.95312 348.1375 346.95312 347.73126Q346.95312 347.3719 346.64062 347.16876Q346.42188 347.02814 345.5625 346.8094Q344.40625 346.5125 343.95312 346.3094Q343.51562 346.09064 343.28125 345.71564Q343.04688 345.34064 343.04688 344.8719Q343.04688 344.46564 343.23438 344.10626Q343.42188 343.7469 343.75 343.5125Q344.0 343.34064 344.42188 343.21564Q344.84375 343.09064 345.34375 343.09064Q346.0625 343.09064 346.60938 343.3094Q347.17188 343.5125 347.4375 343.8719Q347.70312 344.23126 347.79688 344.825L346.76562 344.96564Q346.70312 344.4969 346.35938 344.23126Q346.03125 343.95 345.40625 343.95Q344.6875 343.95 344.375 344.2Q344.0625 344.4344 344.0625 344.7625Q344.0625 344.96564 344.1875 345.1219Q344.32812 345.29376 344.59375 345.40314Q344.75 345.46564 345.53125 345.66876Q346.65625 345.98126 347.09375 346.16876Q347.53125 346.35626 347.78125 346.71564Q348.03125 347.075 348.03125 347.6219Q348.03125 348.15314 347.71875 348.6219Q347.42188 349.075 346.84375 349.34064Q346.26562 349.59064 345.53125 349.59064Q344.3125 349.59064 343.67188 349.09064Q343.04688 348.575 342.875 347.59064Z" fill-rule="nonzero"/><path fill="#000000" d="M29.550013 241.80833L20.956263 241.80833L20.956263 240.68333L29.550013 240.68333L29.550013 241.80833ZM29.550013 239.13646L23.331263 239.13646L23.331263 238.19896L24.206263 238.19896Q23.737513 237.90208 23.471888 237.41771Q23.190638 236.93333 23.190638 236.30833Q23.190638 235.62083 23.471888 235.18333Q23.753138 234.73021 24.268763 234.55833Q23.190638 233.80833 23.190638 232.63646Q23.190638 231.69896 23.706263 231.21458Q24.206263 230.71458 25.284388 230.71458L29.550013 230.71458L29.550013 231.76146L25.628138 231.76146Q25.003138 231.76146 24.721888 231.87083Q24.440638 231.96458 24.268763 232.23021Q24.096888 232.49583 24.096888 232.87083Q24.096888 233.52708 24.534388 233.96458Q24.971888 234.38646 25.940638 234.38646L29.550013 234.38646L29.550013 235.44896L25.503138 235.44896Q24.800013 235.44896 24.456263 235.71458Q24.096888 235.96458 24.096888 236.54271Q24.096888 236.99583 24.331263 237.37083Q24.565638 237.74583 25.018763 237.91771Q25.471888 238.08958 26.315638 238.08958L29.550013 238.08958L29.550013 239.13646ZM28.784388 224.07396Q29.284388 224.66771 29.487513 225.21458Q29.690638 225.74583 29.690638 226.37083Q29.690638 227.40208 29.190638 227.94896Q28.690638 228.49583 27.909388 228.49583Q27.456263 228.49583 27.081263 228.29271Q26.690638 228.08958 26.471888 227.74583Q26.237513 227.40208 26.128138 226.98021Q26.034388 226.68333 25.956263 226.04271Q25.815638 224.77708 25.596888 224.16771Q25.378138 224.16771 25.331263 224.16771Q24.675013 224.16771 24.409388 224.46458Q24.065638 224.87083 24.065638 225.66771Q24.065638 226.40208 24.331263 226.76146Q24.581263 227.12083 25.237513 227.29271L25.096888 228.32396Q24.440638 228.18333 24.034388 227.85521Q23.628138 227.52708 23.409388 226.91771Q23.190638 226.30833 23.190638 225.51146Q23.190638 224.71458 23.378138 224.21458Q23.565638 223.71458 23.846888 223.48021Q24.128138 223.24583 24.565638 223.15208Q24.831263 223.10521 25.534388 223.10521L26.940638 223.10521Q28.409388 223.10521 28.800013 223.04271Q29.190638 222.96458 29.550013 222.76146L29.550013 223.87083Q29.221888 224.02708 28.784388 224.07396ZM26.425013 224.16771Q26.659388 224.74583 26.831263 225.88646Q26.925013 226.54271 27.050013 226.80833Q27.159388 227.07396 27.378138 227.23021Q27.596888 227.37083 27.878138 227.37083Q28.300013 227.37083 28.581263 227.05833Q28.862513 226.73021 28.862513 226.12083Q28.862513 225.51146 28.596888 225.04271Q28.331263 224.55833 27.862513 224.33958Q27.503138 224.16771 26.815638 224.16771L26.425013 224.16771ZM30.065638 221.33958L30.221888 220.30833Q30.690638 220.24583 30.909388 219.94896Q31.206263 219.55833 31.206263 218.88646Q31.206263 218.15208 30.909388 217.76146Q30.612513 217.35521 30.096888 217.21458Q29.768763 217.12083 28.737513 217.13646Q29.550013 217.82396 29.550013 218.85521Q29.550013 220.13646 28.628138 220.83958Q27.690638 221.54271 26.409388 221.54271Q25.518763 221.54271 24.768763 221.23021Q24.003138 220.90208 23.596888 220.29271Q23.190638 219.68333 23.190638 218.85521Q23.190638 217.74583 24.081263 217.02708L23.331263 217.02708L23.331263 216.05833L28.706263 216.05833Q30.159388 216.05833 30.768763 216.35521Q31.378138 216.65208 31.721888 217.29271Q32.08126 217.93333 32.08126 218.87083Q32.08126 219.98021 31.581263 220.66771Q31.081263 221.35521 30.065638 221.33958ZM26.331263 220.46458Q27.550013 220.46458 28.112513 219.98021Q28.675013 219.49583 28.675013 218.76146Q28.675013 218.02708 28.112513 217.54271Q27.550013 217.04271 26.362513 217.04271Q25.221888 217.04271 24.643763 217.55833Q24.065638 218.05833 24.065638 218.77708Q24.065638 219.48021 24.643763 219.98021Q25.206263 220.46458 26.331263 220.46458ZM27.550013 209.88646L27.675013 208.79271Q28.628138 209.04271 29.159388 209.74583Q29.690638 210.44896 29.690638 211.52708Q29.690638 212.88646 28.846888 213.69896Q28.003138 214.49583 26.487513 214.49583Q24.925013 214.49583 24.065638 213.68333Q23.190638 212.87083 23.190638 211.58958Q23.190638 210.33958 24.034388 209.55833Q24.878138 208.76146 26.425013 208.76146Q26.518763 208.76146 26.706263 208.76146L26.706263 213.40208Q27.737513 213.33958 28.284388 212.82396Q28.815638 212.30833 28.815638 211.52708Q28.815638 210.94896 28.518763 210.54271Q28.206263 210.12083 27.550013 209.88646ZM25.846888 213.33958L25.846888 209.87083Q25.050013 209.93333 24.659388 210.26146Q24.050013 210.77708 24.050013 211.57396Q24.050013 212.30833 24.534388 212.80833Q25.018763 213.29271 25.846888 213.33958ZM27.690638 207.55833L27.534388 206.52708Q28.159388 206.43333 28.487513 206.04271Q28.815638 205.63646 28.815638 204.90208Q28.815638 204.18333 28.534388 203.83958Q28.237513 203.48021 27.831263 203.48021Q27.471888 203.48021 27.268763 203.79271Q27.128138 204.01146 26.909388 204.87083Q26.612513 206.02708 26.409388 206.48021Q26.190638 206.91771 25.815638 207.15208Q25.440638 207.38646 24.971888 207.38646Q24.565638 207.38646 24.206263 207.19896Q23.846888 207.01146 23.612513 206.68333Q23.440638 206.43333 23.315638 206.01146Q23.190638 205.58958 23.190638 205.08958Q23.190638 204.37083 23.409388 203.82396Q23.612513 203.26146 23.971888 202.99583Q24.331263 202.73021 24.925013 202.63646L25.065638 203.66771Q24.596888 203.73021 24.331263 204.07396Q24.050013 204.40208 24.050013 205.02708Q24.050013 205.74583 24.300013 206.05833Q24.534388 206.37083 24.862513 206.37083Q25.065638 206.37083 25.221888 206.24583Q25.393763 206.10521 25.503138 205.83958Q25.565638 205.68333 25.768763 204.90208Q26.081263 203.77708 26.268763 203.33958Q26.456263 202.90208 26.815638 202.65208Q27.175013 202.40208 27.721888 202.40208Q28.253138 202.40208 28.721888 202.71458Q29.175013 203.01146 29.440638 203.58958Q29.690638 204.16771 29.690638 204.90208Q29.690638 206.12083 29.190638 206.76146Q28.675013 207.38646 27.690638 207.55833ZM29.690638 200.93333L20.815638 198.44896L20.815638 197.60521L29.690638 200.08958L29.690638 200.93333ZM26.784388 197.38646L26.690638 196.32396Q27.346888 196.24583 27.753138 195.96458Q28.159388 195.68333 28.425013 195.10521Q28.675013 194.51146 28.675013 193.77708Q28.675013 193.13646 28.487513 192.63646Q28.284388 192.13646 27.956263 191.90208Q27.612513 191.65208 27.221888 191.65208Q26.815638 191.65208 26.518763 191.88646Q26.206263 192.12083 26.003138 192.65208Q25.862513 193.01146 25.581263 194.19896Q25.300013 195.37083 25.050013 195.83958Q24.721888 196.46458 24.253138 196.76146Q23.768763 197.05833 23.175013 197.05833Q22.534388 197.05833 21.971888 196.69896Q21.393763 196.32396 21.112513 195.62083Q20.815638 194.90208 20.815638 194.04271Q20.815638 193.08958 21.128138 192.35521Q21.425013 191.62083 22.034388 191.23021Q22.628138 190.83958 23.378138 190.80833L23.456263 191.90208Q22.643763 191.99583 22.237513 192.51146Q21.815638 193.01146 21.815638 193.99583Q21.815638 195.02708 22.190638 195.49583Q22.565638 195.96458 23.096888 195.96458Q23.565638 195.96458 23.862513 195.63646Q24.159388 195.30833 24.471888 193.93333Q24.784388 192.54271 25.018763 192.02708Q25.378138 191.27708 25.909388 190.91771Q26.425013 190.55833 27.128138 190.55833Q27.815638 190.55833 28.425013 190.94896Q29.018763 191.33958 29.362513 192.07396Q29.690638 192.80833 29.690638 193.73021Q29.690638 194.90208 29.362513 195.69896Q29.018763 196.48021 28.331263 196.93333Q27.643763 197.37083 26.784388 197.38646ZM27.550013 184.88646L27.675013 183.79271Q28.628138 184.04271 29.159388 184.74583Q29.690638 185.44896 29.690638 186.52708Q29.690638 187.88646 28.846888 188.69896Q28.003138 189.49583 26.487513 189.49583Q24.925013 189.49583 24.065638 188.68333Q23.190638 187.87083 23.190638 186.58958Q23.190638 185.33958 24.034388 184.55833Q24.878138 183.76146 26.425013 183.76146Q26.518763 183.76146 26.706263 183.76146L26.706263 188.40208Q27.737513 188.33958 28.284388 187.82396Q28.815638 187.30833 28.815638 186.52708Q28.815638 185.94896 28.518763 185.54271Q28.206263 185.12083 27.550013 184.88646ZM25.846888 188.33958L25.846888 184.87083Q25.050013 184.93333 24.659388 185.26146Q24.050013 185.77708 24.050013 186.57396Q24.050013 187.30833 24.534388 187.80833Q25.018763 188.29271 25.846888 188.33958ZM27.268763 178.07396L27.409388 177.04271Q28.471888 177.21458 29.081263 177.91771Q29.690638 178.62083 29.690638 179.63646Q29.690638 180.91771 28.862513 181.69896Q28.018763 182.46458 26.456263 182.46458Q25.456263 182.46458 24.706263 182.13646Q23.940638 181.79271 23.565638 181.12083Q23.190638 180.43333 23.190638 179.62083Q23.190638 178.62083 23.706263 177.98021Q24.206263 177.32396 25.159388 177.13646L25.315638 178.16771Q24.690638 178.30833 24.378138 178.68333Q24.050013 179.05833 24.050013 179.58958Q24.050013 180.38646 24.628138 180.88646Q25.190638 181.38646 26.425013 181.38646Q27.690638 181.38646 28.253138 180.90208Q28.815638 180.41771 28.815638 179.65208Q28.815638 179.02708 28.440638 178.62083Q28.065638 178.19896 27.268763 178.07396ZM26.440638 176.52708Q24.706263 176.52708 23.878138 175.57396Q23.190638 174.77708 23.190638 173.62083Q23.190638 172.33958 24.034388 171.52708Q24.862513 170.69896 26.346888 170.69896Q27.550013 170.69896 28.237513 171.05833Q28.925013 171.41771 29.315638 172.12083Q29.690638 172.80833 29.690638 173.62083Q29.690638 174.91771 28.862513 175.73021Q28.018763 176.52708 26.440638 176.52708ZM26.440638 175.44896Q27.628138 175.44896 28.221888 174.93333Q28.815638 174.40208 28.815638 173.62083Q28.815638 172.82396 28.221888 172.30833Q27.628138 171.79271 26.409388 171.79271Q25.253138 171.79271 24.659388 172.32396Q24.065638 172.83958 24.065638 173.62083Q24.065638 174.40208 24.659388 174.93333Q25.237513 175.44896 26.440638 175.44896ZM29.550013 169.13646L23.331263 169.13646L23.331263 168.19896L24.206263 168.19896Q23.190638 167.51146 23.190638 166.21458Q23.190638 165.65208 23.393763 165.18333Q23.596888 164.69896 23.925013 164.46458Q24.253138 164.23021 24.690638 164.13646Q24.987513 164.08958 25.721888 164.08958L29.550013 164.08958L29.550013 165.13646L25.768763 165.13646Q25.112513 165.13646 24.800013 165.26146Q24.487513 165.38646 24.300013 165.69896Q24.096888 166.01146 24.096888 166.43333Q24.096888 167.10521 24.534388 167.60521Q24.956263 168.08958 26.143763 168.08958L29.550013 168.08958L29.550013 169.13646ZM29.550013 158.10521L28.768763 158.10521Q29.690638 158.69896 29.690638 159.83958Q29.690638 160.58958 29.284388 161.21458Q28.862513 161.83958 28.128138 162.18333Q27.393763 162.52708 26.440638 162.52708Q25.518763 162.52708 24.753138 162.21458Q23.987513 161.90208 23.596888 161.27708Q23.190638 160.65208 23.190638 159.88646Q23.190638 159.32396 23.425013 158.88646Q23.659388 158.44896 24.034388 158.16771L20.956263 158.16771L20.956263 157.12083L29.550013 157.12083L29.550013 158.10521ZM26.440638 161.43333Q27.643763 161.43333 28.237513 160.93333Q28.815638 160.43333 28.815638 159.74583Q28.815638 159.05833 28.253138 158.57396Q27.690638 158.08958 26.534388 158.08958Q25.253138 158.08958 24.659388 158.58958Q24.065638 159.07396 24.065638 159.79271Q24.065638 160.49583 24.643763 160.96458Q25.206263 161.43333 26.440638 161.43333Z" fill-rule="nonzero"/><path fill="#000000" d="M72.05 300.21564Q72.05 298.6844 72.3625 297.7625Q72.675 296.825 73.28438 296.325Q73.90938 295.825 74.84688 295.825Q75.53438 295.825 76.05 296.10626Q76.58125 296.3875 76.925 296.91876Q77.26875 297.4344 77.45625 298.1844Q77.64375 298.9344 77.64375 300.21564Q77.64375 301.73126 77.33125 302.65314Q77.03438 303.575 76.40938 304.09064Q75.8 304.59064 74.84688 304.59064Q73.6125 304.59064 72.89375 303.7Q72.05 302.6375 72.05 300.21564ZM73.12813 300.21564Q73.12813 302.325 73.62813 303.02814Q74.12813 303.73126 74.84688 303.73126Q75.58125 303.73126 76.06563 303.02814Q76.56563 302.325 76.56563 300.21564Q76.56563 298.09064 76.06563 297.40314Q75.58125 296.7 74.83125 296.7Q74.1125 296.7 73.675 297.3094Q73.12813 298.09064 73.12813 300.21564Z" fill-rule="nonzero"/><path fill="#000000" d="M56.596874 249.67604L56.596874 250.69167L50.909374 250.69167Q50.909374 250.31667 51.034374 249.95729Q51.253124 249.37917 51.721874 248.81667Q52.20625 248.25417 53.1125 247.51979Q54.51875 246.36354 55.003124 245.69167Q55.503124 245.01979 55.503124 244.42604Q55.503124 243.80104 55.05 243.37917Q54.596874 242.94167 53.878124 242.94167Q53.1125 242.94167 52.659374 243.39479Q52.20625 243.84792 52.190624 244.66042L51.1125 244.55104Q51.221874 243.33229 51.940624 242.70729Q52.675 242.06667 53.909374 242.06667Q55.14375 242.06667 55.8625 242.75417Q56.58125 243.44167 56.58125 244.45729Q56.58125 244.97292 56.3625 245.47292Q56.159374 245.95729 55.659374 246.51979Q55.175 247.06667 54.05 248.01979Q53.096874 248.81667 52.815624 249.11354Q52.55 249.39479 52.378124 249.67604L56.596874 249.67604ZM58.05 246.45729Q58.05 244.92604 58.3625 244.00417Q58.675 243.06667 59.284374 242.56667Q59.909374 242.06667 60.846874 242.06667Q61.534374 242.06667 62.05 242.34792Q62.58125 242.62917 62.925 243.16042Q63.26875 243.67604 63.45625 244.42604Q63.64375 245.17604 63.64375 246.45729Q63.64375 247.97292 63.33125 248.89479Q63.034374 249.81667 62.409374 250.33229Q61.8 250.83229 60.846874 250.83229Q59.6125 250.83229 58.89375 249.94167Q58.05 248.87917 58.05 246.45729ZM59.128124 246.45729Q59.128124 248.56667 59.628124 249.26979Q60.128124 249.97292 60.846874 249.97292Q61.58125 249.97292 62.065624 249.26979Q62.565624 248.56667 62.565624 246.45729Q62.565624 244.33229 62.065624 243.64479Q61.58125 242.94167 60.83125 242.94167Q60.1125 242.94167 59.675 243.55104Q59.128124 244.33229 59.128124 246.45729ZM65.05 246.45729Q65.05 244.92604 65.3625 244.00417Q65.675 243.06667 66.28438 242.56667Q66.90938 242.06667 67.84688 242.06667Q68.53438 242.06667 69.05 242.34792Q69.58125 242.62917 69.925 243.16042Q70.26875 243.67604 70.45625 244.42604Q70.64375 245.17604 70.64375 246.45729Q70.64375 247.97292 70.33125 248.89479Q70.03438 249.81667 69.40938 250.33229Q68.8 250.83229 67.84688 250.83229Q66.6125 250.83229 65.89375 249.94167Q65.05 248.87917 65.05 246.45729ZM66.12813 246.45729Q66.12813 248.56667 66.62813 249.26979Q67.12813 249.97292 67.84688 249.97292Q68.58125 249.97292 69.06563 249.26979Q69.56563 248.56667 69.56563 246.45729Q69.56563 244.33229 69.06563 243.64479Q68.58125 242.94167 67.83125 242.94167Q67.1125 242.94167 66.675 243.55104Q66.12813 244.33229 66.12813 246.45729ZM72.05 246.45729Q72.05 244.92604 72.3625 244.00417Q72.675 243.06667 73.28438 242.56667Q73.90938 242.06667 74.84688 242.06667Q75.53438 242.06667 76.05 242.34792Q76.58125 242.62917 76.925 243.16042Q77.26875 243.67604 77.45625 244.42604Q77.64375 245.17604 77.64375 246.45729Q77.64375 247.97292 77.33125 248.89479Q77.03438 249.81667 76.40938 250.33229Q75.8 250.83229 74.84688 250.83229Q73.6125 250.83229 72.89375 249.94167Q72.05 248.87917 72.05 246.45729ZM73.12813 246.45729Q73.12813 248.56667 73.62813 249.26979Q74.12813 249.97292 74.84688 249.97292Q75.58125 249.97292 76.06563 249.26979Q76.56563 248.56667 76.56563 246.45729Q76.56563 244.33229 76.06563 243.64479Q75.58125 242.94167 74.83125 242.94167Q74.1125 242.94167 73.675 243.55104Q73.12813 244.33229 73.12813 246.45729Z" fill-rule="nonzero"/><path fill="#000000" d="M54.425 196.93333L54.425 194.87083L50.70625 194.87083L50.70625 193.90208L54.628124 188.33958L55.4875 188.33958L55.4875 193.90208L56.64375 193.90208L56.64375 194.87083L55.4875 194.87083L55.4875 196.93333L54.425 196.93333ZM54.425 193.90208L54.425 190.04271L51.7375 193.90208L54.425 193.90208ZM58.05 192.69896Q58.05 191.16771 58.3625 190.24583Q58.675 189.30833 59.284374 188.80833Q59.909374 188.30833 60.846874 188.30833Q61.534374 188.30833 62.05 188.58958Q62.58125 188.87083 62.925 189.40208Q63.26875 189.91771 63.45625 190.66771Q63.64375 191.41771 63.64375 192.69896Q63.64375 194.21458 63.33125 195.13646Q63.034374 196.05833 62.409374 196.57396Q61.8 197.07396 60.846874 197.07396Q59.6125 197.07396 58.89375 196.18333Q58.05 195.12083 58.05 192.69896ZM59.128124 192.69896Q59.128124 194.80833 59.628124 195.51146Q60.128124 196.21458 60.846874 196.21458Q61.58125 196.21458 62.065624 195.51146Q62.565624 194.80833 62.565624 192.69896Q62.565624 190.57396 62.065624 189.88646Q61.58125 189.18333 60.83125 189.18333Q60.1125 189.18333 59.675 189.79271Q59.128124 190.57396 59.128124 192.69896ZM65.05 192.69896Q65.05 191.16771 65.3625 190.24583Q65.675 189.30833 66.28438 188.80833Q66.90938 188.30833 67.84688 188.30833Q68.53438 188.30833 69.05 188.58958Q69.58125 188.87083 69.925 189.40208Q70.26875 189.91771 70.45625 190.66771Q70.64375 191.41771 70.64375 192.69896Q70.64375 194.21458 70.33125 195.13646Q70.03438 196.05833 69.40938 196.57396Q68.8 197.07396 67.84688 197.07396Q66.6125 197.07396 65.89375 196.18333Q65.05 195.12083 65.05 192.69896ZM66.12813 192.69896Q66.12813 194.80833 66.62813 195.51146Q67.12813 196.21458 67.84688 196.21458Q68.58125 196.21458 69.06563 195.51146Q69.56563 194.80833 69.56563 192.69896Q69.56563 190.57396 69.06563 189.88646Q68.58125 189.18333 67.83125 189.18333Q67.1125 189.18333 66.675 189.79271Q66.12813 190.57396 66.12813 192.69896ZM72.05 192.69896Q72.05 191.16771 72.3625 190.24583Q72.675 189.30833 73.28438 188.80833Q73.90938 188.30833 74.84688 188.30833Q75.53438 188.30833 76.05 188.58958Q76.58125 188.87083 76.925 189.40208Q77.26875 189.91771 77.45625 190.66771Q77.64375 191.41771 77.64375 192.69896Q77.64375 194.21458 77.33125 195.13646Q77.03438 196.05833 76.40938 196.57396Q75.8 197.07396 74.84688 197.07396Q73.6125 197.07396 72.89375 196.18333Q72.05 195.12083 72.05 192.69896ZM73.12813 192.69896Q73.12813 194.80833 73.62813 195.51146Q74.12813 196.21458 74.84688 196.21458Q75.58125 196.21458 76.06563 195.51146Q76.56563 194.80833 76.56563 192.69896Q76.56563 190.57396 76.06563 189.88646Q75.58125 189.18333 74.83125 189.18333Q74.1125 189.18333 73.675 189.79271Q73.12813 190.57396 73.12813 192.69896Z" fill-rule="nonzero"/><path fill="#000000" d="M56.51875 136.69063L55.471874 136.76875Q55.33125 136.14375 55.08125 135.8625Q54.64375 135.40938 54.01875 135.40938Q53.51875 135.40938 53.128124 135.69063Q52.64375 136.06563 52.346874 136.76875Q52.065624 137.45625 52.05 138.7375Q52.425 138.15938 52.971874 137.87813Q53.534374 137.59688 54.14375 137.59688Q55.190624 137.59688 55.925 138.37813Q56.675 139.15938 56.675 140.37813Q56.675 141.19063 56.315624 141.89375Q55.971874 142.58125 55.3625 142.95625Q54.753124 143.31563 53.9875 143.31563Q52.659374 143.31563 51.83125 142.34688Q51.003124 141.37813 51.003124 139.15938Q51.003124 136.65938 51.925 135.53438Q52.721874 134.55 54.08125 134.55Q55.096874 134.55 55.7375 135.12813Q56.39375 135.69063 56.51875 136.69063ZM52.221874 140.39375Q52.221874 140.94063 52.440624 141.44063Q52.675 141.925 53.08125 142.19063Q53.503124 142.45625 53.971874 142.45625Q54.628124 142.45625 55.1125 141.925Q55.596874 141.37813 55.596874 140.45625Q55.596874 139.56563 55.1125 139.05Q54.64375 138.53438 53.925 138.53438Q53.20625 138.53438 52.70625 139.05Q52.221874 139.56563 52.221874 140.39375ZM58.05 138.94063Q58.05 137.40938 58.3625 136.4875Q58.675 135.55 59.284374 135.05Q59.909374 134.55 60.846874 134.55Q61.534374 134.55 62.05 134.83125Q62.58125 135.1125 62.925 135.64375Q63.26875 136.15938 63.45625 136.90938Q63.64375 137.65938 63.64375 138.94063Q63.64375 140.45625 63.33125 141.37813Q63.034374 142.3 62.409374 142.81563Q61.8 143.31563 60.846874 143.31563Q59.6125 143.31563 58.89375 142.425Q58.05 141.3625 58.05 138.94063ZM59.128124 138.94063Q59.128124 141.05 59.628124 141.75313Q60.128124 142.45625 60.846874 142.45625Q61.58125 142.45625 62.065624 141.75313Q62.565624 141.05 62.565624 138.94063Q62.565624 136.81563 62.065624 136.12813Q61.58125 135.425 60.83125 135.425Q60.1125 135.425 59.675 136.03438Q59.128124 136.81563 59.128124 138.94063ZM65.05 138.94063Q65.05 137.40938 65.3625 136.4875Q65.675 135.55 66.28438 135.05Q66.90938 134.55 67.84688 134.55Q68.53438 134.55 69.05 134.83125Q69.58125 135.1125 69.925 135.64375Q70.26875 136.15938 70.45625 136.90938Q70.64375 137.65938 70.64375 138.94063Q70.64375 140.45625 70.33125 141.37813Q70.03438 142.3 69.40938 142.81563Q68.8 143.31563 67.84688 143.31563Q66.6125 143.31563 65.89375 142.425Q65.05 141.3625 65.05 138.94063ZM66.12813 138.94063Q66.12813 141.05 66.62813 141.75313Q67.12813 142.45625 67.84688 142.45625Q68.58125 142.45625 69.06563 141.75313Q69.56563 141.05 69.56563 138.94063Q69.56563 136.81563 69.06563 136.12813Q68.58125 135.425 67.83125 135.425Q67.1125 135.425 66.675 136.03438Q66.12813 136.81563 66.12813 138.94063ZM72.05 138.94063Q72.05 137.40938 72.3625 136.4875Q72.675 135.55 73.28438 135.05Q73.90938 134.55 74.84688 134.55Q75.53438 134.55 76.05 134.83125Q76.58125 135.1125 76.925 135.64375Q77.26875 136.15938 77.45625 136.90938Q77.64375 137.65938 77.64375 138.94063Q77.64375 140.45625 77.33125 141.37813Q77.03438 142.3 76.40938 142.81563Q75.8 143.31563 74.84688 143.31563Q73.6125 143.31563 72.89375 142.425Q72.05 141.3625 72.05 138.94063ZM73.12813 138.94063Q73.12813 141.05 73.62813 141.75313Q74.12813 142.45625 74.84688 142.45625Q75.58125 142.45625 76.06563 141.75313Q76.56563 141.05 76.56563 138.94063Q76.56563 136.81563 76.06563 136.12813Q75.58125 135.425 74.83125 135.425Q74.1125 135.425 73.675 136.03438Q73.12813 136.81563 73.12813 138.94063Z" fill-rule="nonzero"/><path fill="#000000" d="M52.675 84.760414Q52.01875 84.510414 51.690624 84.072914Q51.378124 83.61979 51.378124 83.010414Q51.378124 82.072914 52.05 81.43229Q52.7375 80.791664 53.846874 80.791664Q54.971874 80.791664 55.659374 81.447914Q56.346874 82.104164 56.346874 83.041664Q56.346874 83.635414 56.034374 84.072914Q55.721874 84.510414 55.08125 84.760414Q55.878124 85.010414 56.284374 85.58854Q56.690624 86.166664 56.690624 86.96354Q56.690624 88.05729 55.909374 88.80729Q55.14375 89.55729 53.8625 89.55729Q52.596874 89.55729 51.815624 88.80729Q51.034374 88.05729 51.034374 86.93229Q51.034374 86.08854 51.45625 85.52604Q51.89375 84.96354 52.675 84.760414ZM52.45625 82.96354Q52.45625 83.572914 52.846874 83.96354Q53.253124 84.354164 53.878124 84.354164Q54.4875 84.354164 54.878124 83.979164Q55.26875 83.58854 55.26875 83.02604Q55.26875 82.447914 54.8625 82.05729Q54.45625 81.65104 53.8625 81.65104Q53.253124 81.65104 52.846874 82.041664Q52.45625 82.43229 52.45625 82.96354ZM52.128124 86.93229Q52.128124 87.385414 52.33125 87.80729Q52.55 88.229164 52.971874 88.46354Q53.39375 88.697914 53.878124 88.697914Q54.628124 88.697914 55.1125 88.21354Q55.6125 87.729164 55.6125 86.979164Q55.6125 86.21354 55.1125 85.71354Q54.6125 85.21354 53.846874 85.21354Q53.096874 85.21354 52.6125 85.71354Q52.128124 86.197914 52.128124 86.93229ZM58.05 85.18229Q58.05 83.65104 58.3625 82.729164Q58.675 81.791664 59.284374 81.291664Q59.909374 80.791664 60.846874 80.791664Q61.534374 80.791664 62.05 81.072914Q62.58125 81.354164 62.925 81.885414Q63.26875 82.40104 63.45625 83.15104Q63.64375 83.90104 63.64375 85.18229Q63.64375 86.697914 63.33125 87.61979Q63.034374 88.541664 62.409374 89.05729Q61.8 89.55729 60.846874 89.55729Q59.6125 89.55729 58.89375 88.666664Q58.05 87.604164 58.05 85.18229ZM59.128124 85.18229Q59.128124 87.291664 59.628124 87.99479Q60.128124 88.697914 60.846874 88.697914Q61.58125 88.697914 62.065624 87.99479Q62.565624 87.291664 62.565624 85.18229Q62.565624 83.05729 62.065624 82.36979Q61.58125 81.666664 60.83125 81.666664Q60.1125 81.666664 59.675 82.27604Q59.128124 83.05729 59.128124 85.18229ZM65.05 85.18229Q65.05 83.65104 65.3625 82.729164Q65.675 81.791664 66.28438 81.291664Q66.90938 80.791664 67.84688 80.791664Q68.53438 80.791664 69.05 81.072914Q69.58125 81.354164 69.925 81.885414Q70.26875 82.40104 70.45625 83.15104Q70.64375 83.90104 70.64375 85.18229Q70.64375 86.697914 70.33125 87.61979Q70.03438 88.541664 69.40938 89.05729Q68.8 89.55729 67.84688 89.55729Q66.6125 89.55729 65.89375 88.666664Q65.05 87.604164 65.05 85.18229ZM66.12813 85.18229Q66.12813 87.291664 66.62813 87.99479Q67.12813 88.697914 67.84688 88.697914Q68.58125 88.697914 69.06563 87.99479Q69.56563 87.291664 69.56563 85.18229Q69.56563 83.05729 69.06563 82.36979Q68.58125 81.666664 67.83125 81.666664Q67.1125 81.666664 66.675 82.27604Q66.12813 83.05729 66.12813 85.18229ZM72.05 85.18229Q72.05 83.65104 72.3625 82.729164Q72.675 81.791664 73.28438 81.291664Q73.90938 80.791664 74.84688 80.791664Q75.53438 80.791664 76.05 81.072914Q76.58125 81.354164 76.925 81.885414Q77.26875 82.40104 77.45625 83.15104Q77.64375 83.90104 77.64375 85.18229Q77.64375 86.697914 77.33125 87.61979Q77.03438 88.541664 76.40938 89.05729Q75.8 89.55729 74.84688 89.55729Q73.6125 89.55729 72.89375 88.666664Q72.05 87.604164 72.05 85.18229ZM73.12813 85.18229Q73.12813 87.291664 73.62813 87.99479Q74.12813 88.697914 74.84688 88.697914Q75.58125 88.697914 76.06563 87.99479Q76.56563 87.291664 76.56563 85.18229Q76.56563 83.05729 76.06563 82.36979Q75.58125 81.666664 74.83125 81.666664Q74.1125 81.666664 73.675 82.27604Q73.12813 83.05729 73.12813 85.18229Z" fill-rule="nonzero"/><path fill="#000000" d="M162.62392 317.45L161.57704 317.45L161.57704 310.73126Q161.18642 311.09064 160.56142 311.46564Q159.95204 311.825 159.46767 311.9969L159.46767 310.98126Q160.34267 310.5594 160.99892 309.98126Q161.67079 309.3875 161.95204 308.825L162.62392 308.825L162.62392 317.45Z" fill-rule="nonzero"/><path fill="#000000" d="M278.43195 316.4344L278.43195 317.45L272.74445 317.45Q272.74445 317.075 272.86945 316.71564Q273.0882 316.1375 273.55695 315.575Q274.04132 315.0125 274.94757 314.27814Q276.35382 313.1219 276.8382 312.45Q277.3382 311.77814 277.3382 311.1844Q277.3382 310.5594 276.88507 310.1375Q276.43195 309.7 275.7132 309.7Q274.94757 309.7 274.49445 310.15314Q274.04132 310.60626 274.0257 311.41876L272.94757 311.3094Q273.05695 310.09064 273.7757 309.46564Q274.51007 308.825 275.74445 308.825Q276.97882 308.825 277.69757 309.5125Q278.41632 310.2 278.41632 311.21564Q278.41632 311.73126 278.19757 312.23126Q277.99445 312.71564 277.49445 313.27814Q277.01007 313.825 275.88507 314.77814Q274.93195 315.575 274.6507 315.8719Q274.38507 316.15314 274.2132 316.4344L278.43195 316.4344Z" fill-rule="nonzero"/><path fill="#000000" d="M390.48993 317.45L390.48993 315.3875L386.77118 315.3875L386.77118 314.41876L390.69305 308.85626L391.55243 308.85626L391.55243 314.41876L392.70868 314.41876L392.70868 315.3875L391.55243 315.3875L391.55243 317.45L390.48993 317.45ZM390.48993 314.41876L390.48993 310.5594L387.80243 314.41876L390.48993 314.41876Z" fill-rule="nonzero"/><path fill="#000000" d="M502.96982 312.79376Q502.31357 312.54376 501.98544 312.10626Q501.67294 311.65314 501.67294 311.04376Q501.67294 310.10626 502.34482 309.46564Q503.03232 308.825 504.1417 308.825Q505.2667 308.825 505.9542 309.48126Q506.6417 310.1375 506.6417 311.075Q506.6417 311.66876 506.3292 312.10626Q506.0167 312.54376 505.37607 312.79376Q506.17294 313.04376 506.5792 313.6219Q506.98544 314.2 506.98544 314.9969Q506.98544 316.09064 506.2042 316.84064Q505.43857 317.59064 504.15732 317.59064Q502.8917 317.59064 502.11044 316.84064Q501.3292 316.09064 501.3292 314.96564Q501.3292 314.1219 501.75107 313.5594Q502.18857 312.9969 502.96982 312.79376ZM502.75107 310.9969Q502.75107 311.60626 503.1417 311.9969Q503.54794 312.3875 504.17294 312.3875Q504.78232 312.3875 505.17294 312.0125Q505.56357 311.6219 505.56357 311.0594Q505.56357 310.48126 505.15732 310.09064Q504.75107 309.6844 504.15732 309.6844Q503.54794 309.6844 503.1417 310.075Q502.75107 310.46564 502.75107 310.9969ZM502.42294 314.96564Q502.42294 315.41876 502.62607 315.84064Q502.84482 316.2625 503.2667 316.4969Q503.68857 316.73126 504.17294 316.73126Q504.92294 316.73126 505.40732 316.2469Q505.90732 315.7625 505.90732 315.0125Q505.90732 314.2469 505.40732 313.7469Q504.90732 313.2469 504.1417 313.2469Q503.3917 313.2469 502.90732 313.7469Q502.42294 314.23126 502.42294 314.96564Z" fill-rule="nonzero"/><path fill="#999999" d="M19.58125 63.05L19.58125 53.034374L20.909374 53.034374L20.909374 61.8625L25.83125 61.8625L25.83125 63.05L19.58125 63.05ZM32.20625 62.159374Q31.534374 62.7375 30.89375 62.9875Q30.26875 63.221874 29.534374 63.221874Q28.346874 63.221874 27.690624 62.64375Q27.05 62.05 27.05 61.128124Q27.05 60.596874 27.284374 60.159374Q27.534374 59.721874 27.925 59.45625Q28.33125 59.190624 28.815624 59.05Q29.175 58.95625 29.909374 58.8625Q31.409374 58.690624 32.1125 58.440624Q32.1125 58.190624 32.1125 58.128124Q32.1125 57.3625 31.76875 57.065624Q31.3 56.64375 30.3625 56.64375Q29.503124 56.64375 29.08125 56.95625Q28.675 57.253124 28.471874 58.01875L27.26875 57.8625Q27.425 57.08125 27.8 56.6125Q28.190624 56.14375 28.89375 55.89375Q29.6125 55.628124 30.55 55.628124Q31.471874 55.628124 32.05 55.846874Q32.628124 56.065624 32.89375 56.39375Q33.175 56.721874 33.284374 57.2375Q33.346874 57.55 33.346874 58.3625L33.346874 60.003124Q33.346874 61.721874 33.425 62.175Q33.503124 62.628124 33.7375 63.05L32.45625 63.05Q32.26875 62.659374 32.20625 62.159374ZM32.1125 59.409374Q31.440624 59.675 30.096874 59.878124Q29.346874 59.9875 29.01875 60.128124Q28.70625 60.253124 28.534374 60.51875Q28.3625 60.784374 28.3625 61.096874Q28.3625 61.596874 28.7375 61.925Q29.1125 62.253124 29.83125 62.253124Q30.55 62.253124 31.096874 61.940624Q31.64375 61.628124 31.909374 61.08125Q32.1125 60.675 32.1125 59.8625L32.1125 59.409374ZM35.471874 63.05L35.471874 55.784374L36.58125 55.784374L36.58125 56.815624Q36.909374 56.26875 37.471874 55.95625Q38.05 55.628124 38.76875 55.628124Q39.58125 55.628124 40.096874 55.971874Q40.6125 56.3 40.83125 56.89375Q41.690624 55.628124 43.065624 55.628124Q44.14375 55.628124 44.721874 56.221874Q45.315624 56.815624 45.315624 58.065624L45.315624 63.05L44.08125 63.05L44.08125 58.471874Q44.08125 57.7375 43.95625 57.409374Q43.846874 57.08125 43.534374 56.89375Q43.221874 56.690624 42.8 56.690624Q42.034374 56.690624 41.51875 57.20625Q41.01875 57.70625 41.01875 58.83125L41.01875 63.05L39.784374 63.05L39.784374 58.33125Q39.784374 57.51875 39.4875 57.1125Q39.190624 56.690624 38.503124 56.690624Q37.9875 56.690624 37.534374 56.971874Q37.096874 57.2375 36.89375 57.76875Q36.70625 58.284374 36.70625 59.284374L36.70625 63.05L35.471874 63.05ZM47.6125 63.05L46.471874 63.05L46.471874 53.034374L47.690624 53.034374L47.690624 56.596874Q48.471874 55.628124 49.690624 55.628124Q50.3625 55.628124 50.95625 55.89375Q51.55 56.159374 51.940624 56.659374Q52.33125 57.14375 52.55 57.83125Q52.76875 58.51875 52.76875 59.315624Q52.76875 61.175 51.83125 62.20625Q50.909374 63.221874 49.628124 63.221874Q48.346874 63.221874 47.6125 62.14375L47.6125 63.05ZM47.596874 59.3625Q47.596874 60.675 47.95625 61.253124Q48.534374 62.20625 49.51875 62.20625Q50.33125 62.20625 50.909374 61.503124Q51.503124 60.8 51.503124 59.409374Q51.503124 57.9875 50.940624 57.315624Q50.378124 56.64375 49.58125 56.64375Q48.76875 56.64375 48.175 57.346874Q47.596874 58.034374 47.596874 59.3625ZM59.190624 63.05L59.190624 62.128124Q58.4875 63.221874 57.159374 63.221874Q56.284374 63.221874 55.55 62.7375Q54.83125 62.253124 54.425 61.39375Q54.034374 60.534374 54.034374 59.425Q54.034374 58.346874 54.39375 57.45625Q54.753124 56.565624 55.471874 56.096874Q56.20625 55.628124 57.096874 55.628124Q57.753124 55.628124 58.26875 55.909374Q58.784374 56.175 59.096874 56.628124L59.096874 53.034374L60.33125 53.034374L60.33125 63.05L59.190624 63.05ZM55.3 59.425Q55.3 60.815624 55.878124 61.51875Q56.471874 62.20625 57.26875 62.20625Q58.08125 62.20625 58.64375 61.55Q59.20625 60.878124 59.20625 59.534374Q59.20625 58.034374 58.628124 57.346874Q58.05 56.64375 57.221874 56.64375Q56.39375 56.64375 55.846874 57.315624Q55.3 57.9875 55.3 59.425ZM67.20625 62.159374Q66.53438 62.7375 65.89375 62.9875Q65.26875 63.221874 64.53438 63.221874Q63.346874 63.221874 62.690624 62.64375Q62.05 62.05 62.05 61.128124Q62.05 60.596874 62.284374 60.159374Q62.534374 59.721874 62.925 59.45625Q63.33125 59.190624 63.815624 59.05Q64.175 58.95625 64.90938 58.8625Q66.40938 58.690624 67.1125 58.440624Q67.1125 58.190624 67.1125 58.128124Q67.1125 57.3625 66.76875 57.065624Q66.3 56.64375 65.3625 56.64375Q64.50313 56.64375 64.08125 56.95625Q63.675 57.253124 63.471874 58.01875L62.26875 57.8625Q62.425 57.08125 62.8 56.6125Q63.190624 56.14375 63.89375 55.89375Q64.6125 55.628124 65.55 55.628124Q66.47188 55.628124 67.05 55.846874Q67.62813 56.065624 67.89375 56.39375Q68.175 56.721874 68.28438 57.2375Q68.34688 57.55 68.34688 58.3625L68.34688 60.003124Q68.34688 61.721874 68.425 62.175Q68.50313 62.628124 68.7375 63.05L67.45625 63.05Q67.26875 62.659374 67.20625 62.159374ZM67.1125 59.409374Q66.44063 59.675 65.09688 59.878124Q64.34688 59.9875 64.01875 60.128124Q63.70625 60.253124 63.534374 60.51875Q63.3625 60.784374 63.3625 61.096874Q63.3625 61.596874 63.7375 61.925Q64.1125 62.253124 64.83125 62.253124Q65.55 62.253124 66.09688 61.940624Q66.64375 61.628124 66.90938 61.08125Q67.1125 60.675 67.1125 59.8625L67.1125 59.409374ZM74.58125 63.05L74.58125 53.034374L75.90938 53.034374L75.90938 61.8625L80.83125 61.8625L80.83125 63.05L74.58125 63.05ZM87.20625 62.159374Q86.53438 62.7375 85.89375 62.9875Q85.26875 63.221874 84.53438 63.221874Q83.34688 63.221874 82.69063 62.64375Q82.05 62.05 82.05 61.128124Q82.05 60.596874 82.28438 60.159374Q82.53438 59.721874 82.925 59.45625Q83.33125 59.190624 83.81563 59.05Q84.175 58.95625 84.90938 58.8625Q86.40938 58.690624 87.1125 58.440624Q87.1125 58.190624 87.1125 58.128124Q87.1125 57.3625 86.76875 57.065624Q86.3 56.64375 85.3625 56.64375Q84.50313 56.64375 84.08125 56.95625Q83.675 57.253124 83.47188 58.01875L82.26875 57.8625Q82.425 57.08125 82.8 56.6125Q83.19063 56.14375 83.89375 55.89375Q84.6125 55.628124 85.55 55.628124Q86.47188 55.628124 87.05 55.846874Q87.62813 56.065624 87.89375 56.39375Q88.175 56.721874 88.28438 57.2375Q88.34688 57.55 88.34688 58.3625L88.34688 60.003124Q88.34688 61.721874 88.425 62.175Q88.50313 62.628124 88.7375 63.05L87.45625 63.05Q87.26875 62.659374 87.20625 62.159374ZM87.1125 59.409374Q86.44063 59.675 85.09688 59.878124Q84.34688 59.9875 84.01875 60.128124Q83.70625 60.253124 83.53438 60.51875Q83.3625 60.784374 83.3625 61.096874Q83.3625 61.596874 83.7375 61.925Q84.1125 62.253124 84.83125 62.253124Q85.55 62.253124 86.09688 61.940624Q86.64375 61.628124 86.90938 61.08125Q87.1125 60.675 87.1125 59.8625L87.1125 59.409374ZM91.6125 63.05L90.47188 63.05L90.47188 53.034374L91.69063 53.034374L91.69063 56.596874Q92.47188 55.628124 93.69063 55.628124Q94.3625 55.628124 94.95625 55.89375Q95.55 56.159374 95.94063 56.659374Q96.33125 57.14375 96.55 57.83125Q96.76875 58.51875 96.76875 59.315624Q96.76875 61.175 95.83125 62.20625Q94.90938 63.221874 93.62813 63.221874Q92.34688 63.221874 91.6125 62.14375L91.6125 63.05ZM91.59688 59.3625Q91.59688 60.675 91.95625 61.253124Q92.53438 62.20625 93.51875 62.20625Q94.33125 62.20625 94.90938 61.503124Q95.50313 60.8 95.50313 59.409374Q95.50313 57.9875 94.94063 57.315624Q94.37813 56.64375 93.58125 56.64375Q92.76875 56.64375 92.175 57.346874Q91.59688 58.034374 91.59688 59.3625ZM97.9875 60.878124L99.19063 60.690624Q99.3 61.425 99.76875 61.815624Q100.2375 62.20625 101.08125 62.20625Q101.925 62.20625 102.33125 61.8625Q102.75313 61.51875 102.75313 61.05Q102.75313 60.628124 102.37813 60.39375Q102.12813 60.221874 101.12813 59.971874Q99.76875 59.628124 99.2375 59.378124Q98.72188 59.128124 98.45625 58.690624Q98.19063 58.253124 98.19063 57.721874Q98.19063 57.2375 98.40938 56.83125Q98.62813 56.409374 99.01875 56.128124Q99.3 55.925 99.78438 55.784374Q100.28438 55.628124 100.8625 55.628124Q101.70625 55.628124 102.34688 55.878124Q103.00313 56.1125 103.31563 56.534374Q103.62813 56.95625 103.7375 57.659374L102.53438 57.83125Q102.45625 57.26875 102.05 56.95625Q101.65938 56.64375 100.94063 56.64375Q100.09688 56.64375 99.7375 56.925Q99.37813 57.190624 99.37813 57.58125Q99.37813 57.815624 99.51875 58.003124Q99.675 58.20625 100.00313 58.33125Q100.175 58.39375 101.08125 58.64375Q102.39375 59.003124 102.90938 59.221874Q103.425 59.440624 103.70625 59.8625Q104.00313 60.284374 104.00313 60.909374Q104.00313 61.534374 103.64375 62.08125Q103.3 62.6125 102.6125 62.925Q101.94063 63.221874 101.08125 63.221874Q99.675 63.221874 98.925 62.628124Q98.19063 62.034374 97.9875 60.878124ZM111.01875 57.6125Q110.25313 57.33125 109.87813 56.815624Q109.51875 56.3 109.51875 55.565624Q109.51875 54.471874 110.3 53.7375Q111.09688 52.9875 112.39375 52.9875Q113.70625 52.9875 114.50313 53.753124Q115.31563 54.51875 115.31563 55.6125Q115.31563 56.3 114.94063 56.815624Q114.58125 57.33125 113.83125 57.6125Q114.75313 57.909374 115.2375 58.58125Q115.72188 59.253124 115.72188 60.190624Q115.72188 61.471874 114.81563 62.346874Q113.90938 63.221874 112.425 63.221874Q110.94063 63.221874 110.01875 62.346874Q109.1125 61.45625 109.1125 60.14375Q109.1125 59.175 109.6125 58.51875Q110.1125 57.846874 111.01875 57.6125ZM110.78438 55.534374Q110.78438 56.2375 111.2375 56.690624Q111.69063 57.14375 112.425 57.14375Q113.14375 57.14375 113.59688 56.70625Q114.05 56.253124 114.05 55.596874Q114.05 54.925 113.58125 54.471874Q113.1125 54.003124 112.40938 54.003124Q111.70625 54.003124 111.2375 54.45625Q110.78438 54.89375 110.78438 55.534374ZM110.37813 60.159374Q110.37813 60.690624 110.62813 61.190624Q110.87813 61.675 111.3625 61.940624Q111.8625 62.20625 112.44063 62.20625Q113.31563 62.20625 113.87813 61.64375Q114.45625 61.08125 114.45625 60.20625Q114.45625 59.315624 113.8625 58.7375Q113.28438 58.14375 112.39375 58.14375Q111.51875 58.14375 110.94063 58.721874Q110.37813 59.3 110.37813 60.159374ZM116.65938 63.05L119.3 59.26875L116.84688 55.784374L118.39375 55.784374L119.50313 57.4875Q119.81563 57.971874 120.00313 58.3Q120.31563 57.846874 120.56563 57.503124L121.78438 55.784374L123.25313 55.784374L120.75313 59.20625L123.44063 63.05L121.94063 63.05L120.44063 60.8L120.05 60.190624L118.14375 63.05L116.65938 63.05ZM126.4875 63.05L122.6125 53.034374L124.05 53.034374L126.65938 60.315624Q126.97188 61.190624 127.175 61.95625Q127.40938 61.128124 127.72188 60.315624L130.425 53.034374L131.78438 53.034374L127.8625 63.05L126.4875 63.05ZM136.76875 63.05L135.53438 63.05L135.53438 55.20625Q135.09688 55.628124 134.3625 56.065624Q133.64375 56.4875 133.08125 56.690624L133.08125 55.503124Q134.1125 55.01875 134.87813 54.33125Q135.65938 53.64375 135.97188 52.9875L136.76875 52.9875L136.76875 63.05ZM140.12813 58.1125Q140.12813 56.33125 140.4875 55.253124Q140.8625 54.159374 141.58125 53.58125Q142.3 52.9875 143.39375 52.9875Q144.20625 52.9875 144.81563 53.315624Q145.425 53.64375 145.81563 54.253124Q146.22188 54.8625 146.44063 55.7375Q146.65938 56.6125 146.65938 58.1125Q146.65938 59.878124 146.3 60.95625Q145.94063 62.034374 145.22188 62.628124Q144.50313 63.221874 143.39375 63.221874Q141.95625 63.221874 141.12813 62.175Q140.12813 60.925 140.12813 58.1125ZM141.39375 58.1125Q141.39375 60.58125 141.97188 61.39375Q142.55 62.20625 143.39375 62.20625Q144.25313 62.20625 144.83125 61.39375Q145.40938 60.565624 145.40938 58.1125Q145.40938 55.628124 144.83125 54.815624Q144.25313 54.003124 143.37813 54.003124Q142.53438 54.003124 142.03438 54.721874Q141.39375 55.64375 141.39375 58.1125ZM148.12813 58.1125Q148.12813 56.33125 148.4875 55.253124Q148.8625 54.159374 149.58125 53.58125Q150.3 52.9875 151.39375 52.9875Q152.20625 52.9875 152.81563 53.315624Q153.425 53.64375 153.81563 54.253124Q154.22188 54.8625 154.44063 55.7375Q154.65938 56.6125 154.65938 58.1125Q154.65938 59.878124 154.3 60.95625Q153.94063 62.034374 153.22188 62.628124Q152.50313 63.221874 151.39375 63.221874Q149.95625 63.221874 149.12813 62.175Q148.12813 60.925 148.12813 58.1125ZM149.39375 58.1125Q149.39375 60.58125 149.97188 61.39375Q150.55 62.20625 151.39375 62.20625Q152.25313 62.20625 152.83125 61.39375Q153.40938 60.565624 153.40938 58.1125Q153.40938 55.628124 152.83125 54.815624Q152.25313 54.003124 151.37813 54.003124Q150.53438 54.003124 150.03438 54.721874Q149.39375 55.64375 149.39375 58.1125ZM160.6125 63.05L160.6125 53.034374L161.97188 53.034374L167.2375 60.89375L167.2375 53.034374L168.51875 53.034374L168.51875 63.05L167.15938 63.05L161.89375 55.175L161.89375 63.05L160.6125 63.05ZM169.01875 59.425Q169.01875 57.409374 170.14375 56.425Q171.06563 55.628124 172.425 55.628124Q173.90938 55.628124 174.8625 56.6125Q175.81563 57.58125 175.81563 59.315624Q175.81563 60.721874 175.39375 61.534374Q174.97188 62.33125 174.15938 62.784374Q173.3625 63.221874 172.425 63.221874Q170.89375 63.221874 169.95625 62.2375Q169.01875 61.253124 169.01875 59.425ZM170.28438 59.425Q170.28438 60.815624 170.89375 61.51875Q171.50313 62.20625 172.425 62.20625Q173.33125 62.20625 173.94063 61.503124Q174.55 60.8 174.55 59.378124Q174.55 58.034374 173.94063 57.346874Q173.33125 56.64375 172.425 56.64375Q171.50313 56.64375 170.89375 57.33125Q170.28438 58.01875 170.28438 59.425ZM182.19063 63.05L182.19063 62.128124Q181.4875 63.221874 180.15938 63.221874Q179.28438 63.221874 178.55 62.7375Q177.83125 62.253124 177.425 61.39375Q177.03438 60.534374 177.03438 59.425Q177.03438 58.346874 177.39375 57.45625Q177.75313 56.565624 178.47188 56.096874Q179.20625 55.628124 180.09688 55.628124Q180.75313 55.628124 181.26875 55.909374Q181.78438 56.175 182.09688 56.628124L182.09688 53.034374L183.33125 53.034374L183.33125 63.05L182.19063 63.05ZM178.3 59.425Q178.3 60.815624 178.87813 61.51875Q179.47188 62.20625 180.26875 62.20625Q181.08125 62.20625 181.64375 61.55Q182.20625 60.878124 182.20625 59.534374Q182.20625 58.034374 181.62813 57.346874Q181.05 56.64375 180.22188 56.64375Q179.39375 56.64375 178.84688 57.315624Q178.3 57.9875 178.3 59.425ZM190.44063 60.70625L191.72188 60.8625Q191.40938 61.9875 190.59688 62.6125Q189.78438 63.221874 188.51875 63.221874Q186.925 63.221874 185.9875 62.2375Q185.06563 61.253124 185.06563 59.4875Q185.06563 57.64375 186.00313 56.64375Q186.95625 55.628124 188.45625 55.628124Q189.90938 55.628124 190.83125 56.628124Q191.75313 57.6125 191.75313 59.409374Q191.75313 59.51875 191.75313 59.7375L186.33125 59.7375Q186.40938 60.925 187.00313 61.565624Q187.6125 62.20625 188.53438 62.20625Q189.20625 62.20625 189.675 61.846874Q190.15938 61.4875 190.44063 60.70625ZM186.40938 58.721874L190.45625 58.721874Q190.37813 57.8 189.9875 57.346874Q189.40938 56.64375 188.47188 56.64375Q187.6125 56.64375 187.03438 57.20625Q186.47188 57.76875 186.40938 58.721874ZM193.8 63.05L193.8 61.64375L195.19063 61.64375L195.19063 63.05Q195.19063 63.815624 194.90938 64.28438Q194.64375 64.76875 194.05 65.03438L193.70625 64.50313Q194.09688 64.33125 194.28438 64.00313Q194.47188 63.675 194.4875 63.05L193.8 63.05ZM201.58125 63.05L201.58125 53.034374L202.90938 53.034374L202.90938 61.8625L207.83125 61.8625L207.83125 63.05L201.58125 63.05ZM209.01875 59.425Q209.01875 57.409374 210.14375 56.425Q211.06563 55.628124 212.425 55.628124Q213.90938 55.628124 214.8625 56.6125Q215.81563 57.58125 215.81563 59.315624Q215.81563 60.721874 215.39375 61.534374Q214.97188 62.33125 214.15938 62.784374Q213.3625 63.221874 212.425 63.221874Q210.89375 63.221874 209.95625 62.2375Q209.01875 61.253124 209.01875 59.425ZM210.28438 59.425Q210.28438 60.815624 210.89375 61.51875Q211.50313 62.20625 212.425 62.20625Q213.33125 62.20625 213.94063 61.503124Q214.55 60.8 214.55 59.378124Q214.55 58.034374 213.94063 57.346874Q213.33125 56.64375 212.425 56.64375Q211.50313 56.64375 210.89375 57.33125Q210.28438 58.01875 210.28438 59.425ZM222.20625 60.39375L223.425 60.55Q223.22188 61.8 222.39375 62.51875Q221.58125 63.221874 220.39375 63.221874Q218.90938 63.221874 218.00313 62.253124Q217.09688 61.26875 217.09688 59.440624Q217.09688 58.26875 217.4875 57.39375Q217.87813 56.503124 218.675 56.065624Q219.47188 55.628124 220.40938 55.628124Q221.58125 55.628124 222.33125 56.221874Q223.09688 56.815624 223.3 57.925L222.1125 58.1125Q221.94063 57.378124 221.50313 57.01875Q221.06563 56.64375 220.45625 56.64375Q219.51875 56.64375 218.94063 57.315624Q218.3625 57.971874 218.3625 59.409374Q218.3625 60.878124 218.925 61.55Q219.4875 62.20625 220.37813 62.20625Q221.1125 62.20625 221.59688 61.76875Q222.08125 61.315624 222.20625 60.39375ZM229.20625 62.159374Q228.53438 62.7375 227.89375 62.9875Q227.26875 63.221874 226.53438 63.221874Q225.34688 63.221874 224.69063 62.64375Q224.05 62.05 224.05 61.128124Q224.05 60.596874 224.28438 60.159374Q224.53438 59.721874 224.925 59.45625Q225.33125 59.190624 225.81563 59.05Q226.175 58.95625 226.90938 58.8625Q228.40938 58.690624 229.1125 58.440624Q229.1125 58.190624 229.1125 58.128124Q229.1125 57.3625 228.76875 57.065624Q228.3 56.64375 227.3625 56.64375Q226.50313 56.64375 226.08125 56.95625Q225.675 57.253124 225.47188 58.01875L224.26875 57.8625Q224.425 57.08125 224.8 56.6125Q225.19063 56.14375 225.89375 55.89375Q226.6125 55.628124 227.55 55.628124Q228.47188 55.628124 229.05 55.846874Q229.62813 56.065624 229.89375 56.39375Q230.175 56.721874 230.28438 57.2375Q230.34688 57.55 230.34688 58.3625L230.34688 60.003124Q230.34688 61.721874 230.425 62.175Q230.50313 62.628124 230.7375 63.05L229.45625 63.05Q229.26875 62.659374 229.20625 62.159374ZM229.1125 59.409374Q228.44063 59.675 227.09688 59.878124Q226.34688 59.9875 226.01875 60.128124Q225.70625 60.253124 225.53438 60.51875Q225.3625 60.784374 225.3625 61.096874Q225.3625 61.596874 225.7375 61.925Q226.1125 62.253124 226.83125 62.253124Q227.55 62.253124 228.09688 61.940624Q228.64375 61.628124 228.90938 61.08125Q229.1125 60.675 229.1125 59.8625L229.1125 59.409374ZM232.44063 63.05L232.44063 53.034374L233.675 53.034374L233.675 63.05L232.44063 63.05ZM239.6125 63.05L239.6125 53.034374L240.97188 53.034374L246.2375 60.89375L246.2375 53.034374L247.51875 53.034374L247.51875 63.05L246.15938 63.05L240.89375 55.175L240.89375 63.05L239.6125 63.05ZM251.4875 63.05L247.6125 53.034374L249.05 53.034374L251.65938 60.315624Q251.97188 61.190624 252.175 61.95625Q252.40938 61.128124 252.72188 60.315624L255.425 53.034374L256.78436 53.034374L252.8625 63.05L251.4875 63.05ZM257.59686 63.05L257.59686 53.034374L259.58124 53.034374L261.95624 60.128124Q262.28436 61.1125 262.4406 61.6125Q262.6125 61.065624 262.97186 60.003124L265.3625 53.034374L267.15936 53.034374L267.15936 63.05L265.8781 63.05L265.8781 54.659374L262.95624 63.05L261.76874 63.05L258.8625 54.51875L258.8625 63.05L257.59686 63.05ZM273.4406 60.70625L274.72186 60.8625Q274.40936 61.9875 273.59686 62.6125Q272.78436 63.221874 271.51874 63.221874Q269.925 63.221874 268.9875 62.2375Q268.0656 61.253124 268.0656 59.4875Q268.0656 57.64375 269.0031 56.64375Q269.95624 55.628124 271.45624 55.628124Q272.90936 55.628124 273.83124 56.628124Q274.7531 57.6125 274.7531 59.409374Q274.7531 59.51875 274.7531 59.7375L269.33124 59.7375Q269.40936 60.925 270.0031 61.565624Q270.6125 62.20625 271.53436 62.20625Q272.20624 62.20625 272.675 61.846874Q273.15936 61.4875 273.4406 60.70625ZM269.40936 58.721874L273.45624 58.721874Q273.3781 57.8 272.9875 57.346874Q272.40936 56.64375 271.47186 56.64375Q270.6125 56.64375 270.03436 57.20625Q269.47186 57.76875 269.40936 58.721874ZM280.175 59.83125L281.425 59.721874Q281.51874 60.471874 281.84686 60.95625Q282.175 61.440624 282.84686 61.7375Q283.53436 62.034374 284.39374 62.034374Q285.14374 62.034374 285.72186 61.815624Q286.3156 61.58125 286.59686 61.190624Q286.8781 60.8 286.8781 60.33125Q286.8781 59.8625 286.59686 59.51875Q286.33124 59.159374 285.70624 58.909374Q285.3 58.753124 283.90936 58.425Q282.53436 58.096874 281.9875 57.8Q281.26874 57.425 280.90936 56.878124Q280.5656 56.315624 280.5656 55.6125Q280.5656 54.8625 280.9875 54.20625Q281.425 53.534374 282.2531 53.20625Q283.08124 52.8625 284.09686 52.8625Q285.20624 52.8625 286.05 53.221874Q286.90936 53.58125 287.3625 54.284374Q287.8156 54.971874 287.8625 55.846874L286.58124 55.940624Q286.4875 55.003124 285.89374 54.51875Q285.3 54.01875 284.14374 54.01875Q282.9406 54.01875 282.39374 54.471874Q281.84686 54.909374 281.84686 55.534374Q281.84686 56.065624 282.2375 56.425Q282.6125 56.76875 284.22186 57.14375Q285.84686 57.503124 286.4406 57.76875Q287.3156 58.175 287.7375 58.8Q288.15936 59.409374 288.15936 60.221874Q288.15936 61.01875 287.6906 61.7375Q287.2375 62.440624 286.3781 62.83125Q285.51874 63.221874 284.45624 63.221874Q283.09686 63.221874 282.175 62.83125Q281.2531 62.425 280.72186 61.628124Q280.20624 60.83125 280.175 59.83125ZM292.15936 61.95625L292.33124 63.034374Q291.8156 63.14375 291.40936 63.14375Q290.7375 63.14375 290.3625 62.940624Q290.0031 62.721874 289.84686 62.378124Q289.70624 62.034374 289.70624 60.925L289.70624 56.753124L288.8 56.753124L288.8 55.784374L289.70624 55.784374L289.70624 53.9875L290.925 53.253124L290.925 55.784374L292.15936 55.784374L292.15936 56.753124L290.925 56.753124L290.925 60.9875Q290.925 61.51875 290.9875 61.675Q291.05 61.815624 291.1906 61.909374Q291.34686 62.003124 291.6125 62.003124Q291.83124 62.003124 292.15936 61.95625ZM293.01874 59.425Q293.01874 57.409374 294.14374 56.425Q295.0656 55.628124 296.425 55.628124Q297.90936 55.628124 298.8625 56.6125Q299.8156 57.58125 299.8156 59.315624Q299.8156 60.721874 299.39374 61.534374Q298.97186 62.33125 298.15936 62.784374Q297.3625 63.221874 296.425 63.221874Q294.89374 63.221874 293.95624 62.2375Q293.01874 61.253124 293.01874 59.425ZM294.28436 59.425Q294.28436 60.815624 294.89374 61.51875Q295.5031 62.20625 296.425 62.20625Q297.33124 62.20625 297.9406 61.503124Q298.55 60.8 298.55 59.378124Q298.55 58.034374 297.9406 57.346874Q297.33124 56.64375 296.425 56.64375Q295.5031 56.64375 294.89374 57.33125Q294.28436 58.01875 294.28436 59.425ZM301.45624 63.05L301.45624 55.784374L302.5656 55.784374L302.5656 56.89375Q302.9875 56.1125 303.34686 55.878124Q303.70624 55.628124 304.14374 55.628124Q304.76874 55.628124 305.40936 56.01875L304.9875 57.159374Q304.53436 56.89375 304.08124 56.89375Q303.675 56.89375 303.34686 57.14375Q303.03436 57.378124 302.89374 57.815624Q302.6906 58.471874 302.6906 59.253124L302.6906 63.05L301.45624 63.05ZM311.20624 62.159374Q310.53436 62.7375 309.89374 62.9875Q309.26874 63.221874 308.53436 63.221874Q307.34686 63.221874 306.6906 62.64375Q306.05 62.05 306.05 61.128124Q306.05 60.596874 306.28436 60.159374Q306.53436 59.721874 306.925 59.45625Q307.33124 59.190624 307.8156 59.05Q308.175 58.95625 308.90936 58.8625Q310.40936 58.690624 311.1125 58.440624Q311.1125 58.190624 311.1125 58.128124Q311.1125 57.3625 310.76874 57.065624Q310.3 56.64375 309.3625 56.64375Q308.5031 56.64375 308.08124 56.95625Q307.675 57.253124 307.47186 58.01875L306.26874 57.8625Q306.425 57.08125 306.8 56.6125Q307.1906 56.14375 307.89374 55.89375Q308.6125 55.628124 309.55 55.628124Q310.47186 55.628124 311.05 55.846874Q311.6281 56.065624 311.89374 56.39375Q312.175 56.721874 312.28436 57.2375Q312.34686 57.55 312.34686 58.3625L312.34686 60.003124Q312.34686 61.721874 312.425 62.175Q312.5031 62.628124 312.7375 63.05L311.45624 63.05Q311.26874 62.659374 311.20624 62.159374ZM311.1125 59.409374Q310.4406 59.675 309.09686 59.878124Q308.34686 59.9875 308.01874 60.128124Q307.70624 60.253124 307.53436 60.51875Q307.3625 60.784374 307.3625 61.096874Q307.3625 61.596874 307.7375 61.925Q308.1125 62.253124 308.83124 62.253124Q309.55 62.253124 310.09686 61.940624Q310.64374 61.628124 310.90936 61.08125Q311.1125 60.675 311.1125 59.8625L311.1125 59.409374ZM314.2531 63.659374L315.4406 63.83125Q315.51874 64.37813 315.8625 64.64375Q316.3156 64.97188 317.1125 64.97188Q317.97186 64.97188 318.425 64.62813Q318.89374 64.3 319.0656 63.675Q319.15936 63.3 319.14374 62.096874Q318.34686 63.05 317.14374 63.05Q315.64374 63.05 314.8156 61.971874Q314.0031 60.89375 314.0031 59.378124Q314.0031 58.346874 314.3781 57.471874Q314.7531 56.58125 315.45624 56.1125Q316.175 55.628124 317.14374 55.628124Q318.425 55.628124 319.26874 56.659374L319.26874 55.784374L320.39374 55.784374L320.39374 62.065624Q320.39374 63.76875 320.05 64.47188Q319.70624 65.175 318.95624 65.58125Q318.20624 66.00313 317.1125 66.00313Q315.8156 66.00313 315.01874 65.40938Q314.22186 64.83125 314.2531 63.659374ZM315.26874 59.284374Q315.26874 60.721874 315.83124 61.378124Q316.39374 62.034374 317.2531 62.034374Q318.09686 62.034374 318.675 61.378124Q319.2531 60.721874 319.2531 59.33125Q319.2531 58.003124 318.65936 57.33125Q318.0656 56.64375 317.2375 56.64375Q316.40936 56.64375 315.83124 57.315624Q315.26874 57.971874 315.26874 59.284374ZM327.4406 60.70625L328.72186 60.8625Q328.40936 61.9875 327.59686 62.6125Q326.78436 63.221874 325.51874 63.221874Q323.925 63.221874 322.9875 62.2375Q322.0656 61.253124 322.0656 59.4875Q322.0656 57.64375 323.0031 56.64375Q323.95624 55.628124 325.45624 55.628124Q326.90936 55.628124 327.83124 56.628124Q328.7531 57.6125 328.7531 59.409374Q328.7531 59.51875 328.7531 59.7375L323.33124 59.7375Q323.40936 60.925 324.0031 61.565624Q324.6125 62.20625 325.53436 62.20625Q326.20624 62.20625 326.675 61.846874Q327.15936 61.4875 327.4406 60.70625ZM323.40936 58.721874L327.45624 58.721874Q327.3781 57.8 326.9875 57.346874Q326.40936 56.64375 325.47186 56.64375Q324.6125 56.64375 324.03436 57.20625Q323.47186 57.76875 323.40936 58.721874Z" fill-rule="nonzero"/><path fill="#757575" d="M20.096874 37.55L20.096874 23.2375L25.4875 23.2375Q26.925 23.2375 27.675 23.3625Q28.721874 23.55 29.440624 24.05Q30.159374 24.534374 30.58125 25.425Q31.01875 26.315624 31.01875 27.378124Q31.01875 29.20625 29.846874 30.471874Q28.690624 31.721874 25.659374 31.721874L21.9875 31.721874L21.9875 37.55L20.096874 37.55ZM21.9875 30.034374L25.690624 30.034374Q27.51875 30.034374 28.284374 29.3625Q29.065624 28.675 29.065624 27.425Q29.065624 26.534374 28.6125 25.89375Q28.159374 25.253124 27.425 25.05Q26.940624 24.925 25.64375 24.925L21.9875 24.925L21.9875 30.034374ZM32.784374 41.55L32.596874 39.89375Q33.175 40.05 33.596874 40.05Q34.190624 40.05 34.534374 39.846874Q34.89375 39.659374 35.1125 39.315624Q35.284374 39.05 35.659374 38.003124Q35.70625 37.846874 35.815624 37.565624L31.878124 27.175L33.76875 27.175L35.925 33.190624Q36.346874 34.33125 36.675 35.58125Q36.9875 34.378124 37.39375 33.221874L39.6125 27.175L41.378124 27.175L37.425 37.721874Q36.8 39.440624 36.440624 40.08125Q35.971874 40.95625 35.3625 41.346874Q34.76875 41.753124 33.925 41.753124Q33.409374 41.753124 32.784374 41.55ZM46.70625 35.971874L46.95625 37.534374Q46.221874 37.690624 45.628124 37.690624Q44.675 37.690624 44.14375 37.39375Q43.628124 37.08125 43.409374 36.596874Q43.190624 36.096874 43.190624 34.51875L43.190624 28.55L41.909374 28.55L41.909374 27.175L43.190624 27.175L43.190624 24.6125L44.940624 23.55L44.940624 27.175L46.70625 27.175L46.70625 28.55L44.940624 28.55L44.940624 34.6125Q44.940624 35.3625 45.034374 35.58125Q45.128124 35.784374 45.33125 35.925Q45.55 36.05 45.940624 36.05Q46.221874 36.05 46.70625 35.971874ZM48.221874 32.3625Q48.221874 29.4875 49.815624 28.096874Q51.159374 26.940624 53.08125 26.940624Q55.221874 26.940624 56.565624 28.346874Q57.925 29.753124 57.925 32.221874Q57.925 34.221874 57.33125 35.378124Q56.7375 36.51875 55.58125 37.159374Q54.440624 37.784374 53.08125 37.784374Q50.89375 37.784374 49.55 36.39375Q48.221874 34.9875 48.221874 32.3625ZM50.01875 32.3625Q50.01875 34.3625 50.878124 35.346874Q51.753124 36.33125 53.08125 36.33125Q54.39375 36.33125 55.253124 35.346874Q56.128124 34.346874 56.128124 32.3Q56.128124 30.378124 55.253124 29.39375Q54.378124 28.39375 53.08125 28.39375Q51.753124 28.39375 50.878124 29.39375Q50.01875 30.378124 50.01875 32.3625ZM59.846874 37.55L59.846874 27.175L61.425 27.175L61.425 28.753124Q62.034374 27.64375 62.55 27.3Q63.065624 26.940624 63.675 26.940624Q64.56563 26.940624 65.4875 27.503124L64.87813 29.14375Q64.2375 28.753124 63.596874 28.753124Q63.01875 28.753124 62.55 29.1125Q62.096874 29.45625 61.89375 30.065624Q61.6125 31.003124 61.6125 32.1125L61.6125 37.55L59.846874 37.55ZM73.64375 33.753124L75.3625 33.971874Q75.08125 35.76875 73.90938 36.784374Q72.75313 37.784374 71.05 37.784374Q68.925 37.784374 67.62813 36.39375Q66.33125 35.003124 66.33125 32.409374Q66.33125 30.721874 66.87813 29.471874Q67.44063 28.20625 68.58125 27.58125Q69.72188 26.940624 71.06563 26.940624Q72.75313 26.940624 73.81563 27.8Q74.89375 28.659374 75.20625 30.221874L73.4875 30.4875Q73.25313 29.440624 72.62813 28.925Q72.00313 28.39375 71.12813 28.39375Q69.8 28.39375 68.97188 29.346874Q68.14375 30.3 68.14375 32.346874Q68.14375 34.440624 68.94063 35.39375Q69.7375 36.33125 71.03438 36.33125Q72.06563 36.33125 72.75313 35.70625Q73.45625 35.065624 73.64375 33.753124ZM76.8625 37.55L76.8625 23.2375L78.62813 23.2375L78.62813 28.3625Q79.8625 26.940624 81.7375 26.940624Q82.87813 26.940624 83.72188 27.39375Q84.58125 27.846874 84.94063 28.659374Q85.31563 29.45625 85.31563 30.971874L85.31563 37.55L83.56563 37.55L83.56563 30.971874Q83.56563 29.659374 82.9875 29.065624Q82.40938 28.45625 81.37813 28.45625Q80.59688 28.45625 79.89375 28.8625Q79.20625 29.26875 78.90938 29.971874Q78.62813 30.659374 78.62813 31.878124L78.62813 37.55L76.8625 37.55ZM92.19063 33.253124L92.19063 31.4875L97.58125 31.4875L97.58125 33.253124L92.19063 33.253124ZM106.12813 37.55L106.12813 23.2375L112.47188 23.2375Q114.37813 23.2375 115.37813 23.628124Q116.37813 24.003124 116.97188 24.9875Q117.56563 25.95625 117.56563 27.14375Q117.56563 28.659374 116.58125 29.70625Q115.59688 30.753124 113.53438 31.034374Q114.28438 31.39375 114.675 31.753124Q115.50313 32.503124 116.25313 33.659374L118.7375 37.55L116.3625 37.55L114.45625 34.565624Q113.62813 33.284374 113.09688 32.596874Q112.56563 31.909374 112.12813 31.64375Q111.70625 31.3625 111.26875 31.253124Q110.94063 31.190624 110.22188 31.190624L108.01875 31.190624L108.01875 37.55L106.12813 37.55ZM108.01875 29.55L112.09688 29.55Q113.39375 29.55 114.1125 29.284374Q114.84688 29.01875 115.22188 28.425Q115.6125 27.83125 115.6125 27.14375Q115.6125 26.128124 114.87813 25.471874Q114.14375 24.815624 112.55 24.815624L108.01875 24.815624L108.01875 29.55ZM126.97188 34.20625L128.78438 34.440624Q128.3625 36.01875 127.19063 36.909374Q126.03438 37.784374 124.22188 37.784374Q121.95625 37.784374 120.6125 36.39375Q119.28438 34.9875 119.28438 32.45625Q119.28438 29.83125 120.62813 28.39375Q121.97188 26.940624 124.12813 26.940624Q126.20625 26.940624 127.51875 28.3625Q128.84688 29.76875 128.84688 32.346874Q128.84688 32.503124 128.83125 32.815624L121.09688 32.815624Q121.19063 34.51875 122.06563 35.425Q122.94063 36.33125 124.2375 36.33125Q125.20625 36.33125 125.87813 35.83125Q126.56563 35.315624 126.97188 34.20625ZM121.19063 31.3625L126.9875 31.3625Q126.87813 30.065624 126.33125 29.409374Q125.4875 28.39375 124.14375 28.39375Q122.94063 28.39375 122.1125 29.20625Q121.28438 30.003124 121.19063 31.3625ZM130.15938 34.45625L131.90938 34.175Q132.05 35.221874 132.72188 35.784374Q133.39375 36.33125 134.59688 36.33125Q135.8 36.33125 136.37813 35.846874Q136.97188 35.346874 136.97188 34.690624Q136.97188 34.096874 136.45625 33.753124Q136.09688 33.51875 134.65938 33.159374Q132.72188 32.659374 131.97188 32.315624Q131.2375 31.95625 130.84688 31.33125Q130.45625 30.690624 130.45625 29.925Q130.45625 29.2375 130.76875 28.64375Q131.09688 28.05 131.64375 27.659374Q132.05 27.3625 132.75313 27.159374Q133.47188 26.940624 134.28438 26.940624Q135.50313 26.940624 136.425 27.3Q137.34688 27.64375 137.78438 28.253124Q138.22188 28.846874 138.39375 29.846874L136.675 30.08125Q136.55 29.284374 135.9875 28.846874Q135.425 28.39375 134.40938 28.39375Q133.19063 28.39375 132.675 28.8Q132.15938 29.190624 132.15938 29.721874Q132.15938 30.065624 132.37813 30.346874Q132.58125 30.628124 133.05 30.815624Q133.31563 30.909374 134.59688 31.253124Q136.47188 31.753124 137.20625 32.08125Q137.94063 32.39375 138.3625 33.003124Q138.78438 33.596874 138.78438 34.503124Q138.78438 35.378124 138.26875 36.159374Q137.75313 36.940624 136.78438 37.3625Q135.81563 37.784374 134.59688 37.784374Q132.58125 37.784374 131.51875 36.940624Q130.45625 36.096874 130.15938 34.45625ZM141.08125 37.55L141.08125 23.2375L143.01875 23.2375L150.53438 34.471874L150.53438 23.2375L152.34688 23.2375L152.34688 37.55L150.40938 37.55L142.89375 26.3L142.89375 37.55L141.08125 37.55ZM160.97188 34.20625L162.78438 34.440624Q162.3625 36.01875 161.19063 36.909374Q160.03438 37.784374 158.22188 37.784374Q155.95625 37.784374 154.6125 36.39375Q153.28438 34.9875 153.28438 32.45625Q153.28438 29.83125 154.62813 28.39375Q155.97188 26.940624 158.12813 26.940624Q160.20625 26.940624 161.51875 28.3625Q162.84688 29.76875 162.84688 32.346874Q162.84688 32.503124 162.83125 32.815624L155.09688 32.815624Q155.19063 34.51875 156.06563 35.425Q156.94063 36.33125 158.2375 36.33125Q159.20625 36.33125 159.87813 35.83125Q160.56563 35.315624 160.97188 34.20625ZM155.19063 31.3625L160.9875 31.3625Q160.87813 30.065624 160.33125 29.409374Q159.4875 28.39375 158.14375 28.39375Q156.94063 28.39375 156.1125 29.20625Q155.28438 30.003124 155.19063 31.3625ZM168.70625 35.971874L168.95625 37.534374Q168.22188 37.690624 167.62813 37.690624Q166.675 37.690624 166.14375 37.39375Q165.62813 37.08125 165.40938 36.596874Q165.19063 36.096874 165.19063 34.51875L165.19063 28.55L163.90938 28.55L163.90938 27.175L165.19063 27.175L165.19063 24.6125L166.94063 23.55L166.94063 27.175L168.70625 27.175L168.70625 28.55L166.94063 28.55L166.94063 34.6125Q166.94063 35.3625 167.03438 35.58125Q167.12813 35.784374 167.33125 35.925Q167.55 36.05 167.94063 36.05Q168.22188 36.05 168.70625 35.971874ZM170.37813 33.8L172.22188 33.64375Q172.425 34.9875 173.175 35.675Q173.925 36.346874 174.9875 36.346874Q176.25313 36.346874 177.12813 35.39375Q178.00313 34.440624 178.00313 32.846874Q178.00313 31.346874 177.15938 30.4875Q176.31563 29.6125 174.95625 29.6125Q174.09688 29.6125 173.40938 30.003124Q172.7375 30.378124 172.34688 31.003124L170.69063 30.784374L172.08125 23.425L179.20625 23.425L179.20625 25.1125L173.4875 25.1125L172.72188 28.95625Q174.00313 28.05 175.425 28.05Q177.3 28.05 178.58125 29.3625Q179.87813 30.659374 179.87813 32.690624Q179.87813 34.64375 178.7375 36.05Q177.3625 37.8 174.9875 37.8Q173.03438 37.8 171.78438 36.70625Q170.55 35.6125 170.37813 33.8ZM181.37813 30.4875Q181.37813 27.95625 181.89375 26.409374Q182.425 24.846874 183.45625 24.01875Q184.4875 23.175 186.05 23.175Q187.20625 23.175 188.06563 23.64375Q188.94063 24.096874 189.50313 24.971874Q190.06563 25.846874 190.39375 27.1125Q190.72188 28.3625 190.72188 30.4875Q190.72188 33.003124 190.19063 34.55Q189.675 36.096874 188.64375 36.95625Q187.62813 37.8 186.05 37.8Q183.97188 37.8 182.8 36.315624Q181.37813 34.51875 181.37813 30.4875ZM183.19063 30.4875Q183.19063 34.01875 184.00313 35.190624Q184.83125 36.346874 186.05 36.346874Q187.25313 36.346874 188.08125 35.175Q188.90938 34.003124 188.90938 30.4875Q188.90938 26.95625 188.08125 25.8Q187.25313 24.628124 186.03438 24.628124Q184.81563 24.628124 184.09688 25.659374Q183.19063 26.95625 183.19063 30.4875ZM195.75313 37.55L191.8 27.175L193.65938 27.175L195.89375 33.39375Q196.25313 34.39375 196.55 35.471874Q196.78438 34.659374 197.20625 33.503124L199.50313 27.175L201.31563 27.175L197.39375 37.55L195.75313 37.55ZM208.00313 37.55L206.2375 37.55L206.2375 26.346874Q205.6125 26.95625 204.58125 27.565624Q203.55 28.159374 202.72188 28.471874L202.72188 26.76875Q204.20625 26.08125 205.3 25.096874Q206.40938 24.096874 206.8625 23.175L208.00313 23.175L208.00313 37.55ZM213.3625 37.55L213.3625 35.55L215.3625 35.55L215.3625 37.55L213.3625 37.55ZM218.37813 33.8L220.22188 33.64375Q220.425 34.9875 221.175 35.675Q221.925 36.346874 222.9875 36.346874Q224.25313 36.346874 225.12813 35.39375Q226.00313 34.440624 226.00313 32.846874Q226.00313 31.346874 225.15938 30.4875Q224.31563 29.6125 222.95625 29.6125Q222.09688 29.6125 221.40938 30.003124Q220.7375 30.378124 220.34688 31.003124L218.69063 30.784374L220.08125 23.425L227.20625 23.425L227.20625 25.1125L221.4875 25.1125L220.72188 28.95625Q222.00313 28.05 223.425 28.05Q225.3 28.05 226.58125 29.3625Q227.87813 30.659374 227.87813 32.690624Q227.87813 34.64375 226.7375 36.05Q225.3625 37.8 222.9875 37.8Q221.03438 37.8 219.78438 36.70625Q218.55 35.6125 218.37813 33.8ZM236.40938 37.55L236.40938 23.2375L238.31563 23.2375L238.31563 37.55L236.40938 37.55ZM241.8625 37.55L241.8625 27.175L243.44063 27.175L243.44063 28.628124Q243.925 27.878124 244.7375 27.409374Q245.55 26.940624 246.58125 26.940624Q247.7375 26.940624 248.47188 27.425Q249.20625 27.89375 249.51875 28.753124Q250.75313 26.940624 252.72188 26.940624Q254.26875 26.940624 255.09688 27.8Q255.925 28.659374 255.925 30.425L255.925 37.55L254.175 37.55L254.175 31.01875Q254.175 29.95625 254.00313 29.503124Q253.83125 29.034374 253.37813 28.753124Q252.94063 28.471874 252.33125 28.471874Q251.2375 28.471874 250.50313 29.20625Q249.78438 29.925 249.78438 31.51875L249.78438 37.55L248.03438 37.55L248.03438 30.815624Q248.03438 29.64375 247.59688 29.065624Q247.175 28.471874 246.19063 28.471874Q245.45625 28.471874 244.81563 28.8625Q244.19063 29.253124 243.90938 30.003124Q243.62813 30.753124 243.62813 32.175L243.62813 37.55L241.8625 37.55ZM264.64374 36.26875Q263.65936 37.096874 262.7531 37.440624Q261.84686 37.784374 260.8156 37.784374Q259.1125 37.784374 258.1906 36.95625Q257.26874 36.1125 257.26874 34.815624Q257.26874 34.05 257.6125 33.425Q257.97186 32.8 258.53436 32.425Q259.09686 32.034374 259.8 31.83125Q260.3156 31.70625 261.3625 31.565624Q263.4875 31.315624 264.4875 30.971874Q264.5031 30.6125 264.5031 30.503124Q264.5031 29.440624 264.0031 28.9875Q263.33124 28.39375 262.0031 28.39375Q260.7531 28.39375 260.15936 28.83125Q259.58124 29.26875 259.3 30.378124L257.58124 30.14375Q257.8156 29.034374 258.34686 28.3625Q258.8781 27.675 259.89374 27.315624Q260.90936 26.940624 262.2531 26.940624Q263.58124 26.940624 264.40936 27.253124Q265.2375 27.565624 265.6281 28.05Q266.01874 28.51875 266.175 29.2375Q266.26874 29.690624 266.26874 30.8625L266.26874 33.20625Q266.26874 35.659374 266.3781 36.315624Q266.4875 36.95625 266.83124 37.55L264.9875 37.55Q264.72186 37.003124 264.64374 36.26875ZM264.4875 32.346874Q263.53436 32.7375 261.6125 33.003124Q260.53436 33.159374 260.08124 33.3625Q259.64374 33.55 259.39374 33.925Q259.14374 34.3 259.14374 34.76875Q259.14374 35.471874 259.675 35.940624Q260.20624 36.409374 261.2375 36.409374Q262.2531 36.409374 263.03436 35.971874Q263.83124 35.51875 264.20624 34.753124Q264.4875 34.14375 264.4875 32.9875L264.4875 32.346874ZM268.55 38.409374L270.2531 38.659374Q270.3625 39.45625 270.84686 39.815624Q271.5031 40.3 272.64374 40.3Q273.8625 40.3 274.51874 39.815624Q275.1906 39.33125 275.425 38.45625Q275.5656 37.909374 275.55 36.190624Q274.39374 37.55 272.675 37.55Q270.53436 37.55 269.3625 36.003124Q268.1906 34.45625 268.1906 32.3Q268.1906 30.815624 268.72186 29.565624Q269.26874 28.315624 270.28436 27.628124Q271.3156 26.940624 272.6906 26.940624Q274.51874 26.940624 275.72186 28.425L275.72186 27.175L277.33124 27.175L277.33124 36.14375Q277.33124 38.565624 276.83124 39.565624Q276.34686 40.58125 275.26874 41.159374Q274.20624 41.753124 272.64374 41.753124Q270.8 41.753124 269.64374 40.925Q268.5031 40.096874 268.55 38.409374ZM270.0031 32.175Q270.0031 34.221874 270.8156 35.159374Q271.6281 36.096874 272.84686 36.096874Q274.05 36.096874 274.8625 35.159374Q275.6906 34.221874 275.6906 32.2375Q275.6906 30.33125 274.84686 29.3625Q274.0031 28.39375 272.8156 28.39375Q271.64374 28.39375 270.8156 29.346874Q270.0031 30.3 270.0031 32.175ZM286.97186 34.20625L288.78436 34.440624Q288.3625 36.01875 287.1906 36.909374Q286.03436 37.784374 284.22186 37.784374Q281.95624 37.784374 280.6125 36.39375Q279.28436 34.9875 279.28436 32.45625Q279.28436 29.83125 280.6281 28.39375Q281.97186 26.940624 284.1281 26.940624Q286.20624 26.940624 287.51874 28.3625Q288.84686 29.76875 288.84686 32.346874Q288.84686 32.503124 288.83124 32.815624L281.09686 32.815624Q281.1906 34.51875 282.0656 35.425Q282.9406 36.33125 284.2375 36.33125Q285.20624 36.33125 285.8781 35.83125Q286.5656 35.315624 286.97186 34.20625ZM281.1906 31.3625L286.9875 31.3625Q286.8781 30.065624 286.33124 29.409374Q285.4875 28.39375 284.14374 28.39375Q282.9406 28.39375 282.1125 29.20625Q281.28436 30.003124 281.1906 31.3625ZM291.08124 37.55L291.08124 23.2375L293.01874 23.2375L300.53436 34.471874L300.53436 23.2375L302.34686 23.2375L302.34686 37.55L300.40936 37.55L292.89374 26.3L292.89374 37.55L291.08124 37.55ZM310.97186 34.20625L312.78436 34.440624Q312.3625 36.01875 311.1906 36.909374Q310.03436 37.784374 308.22186 37.784374Q305.95624 37.784374 304.6125 36.39375Q303.28436 34.9875 303.28436 32.45625Q303.28436 29.83125 304.6281 28.39375Q305.97186 26.940624 308.1281 26.940624Q310.20624 26.940624 311.51874 28.3625Q312.84686 29.76875 312.84686 32.346874Q312.84686 32.503124 312.83124 32.815624L305.09686 32.815624Q305.1906 34.51875 306.0656 35.425Q306.9406 36.33125 308.2375 36.33125Q309.20624 36.33125 309.8781 35.83125Q310.5656 35.315624 310.97186 34.20625ZM305.1906 31.3625L310.9875 31.3625Q310.8781 30.065624 310.33124 29.409374Q309.4875 28.39375 308.14374 28.39375Q306.9406 28.39375 306.1125 29.20625Q305.28436 30.003124 305.1906 31.3625ZM318.70624 35.971874L318.95624 37.534374Q318.22186 37.690624 317.6281 37.690624Q316.675 37.690624 316.14374 37.39375Q315.6281 37.08125 315.40936 36.596874Q315.1906 36.096874 315.1906 34.51875L315.1906 28.55L313.90936 28.55L313.90936 27.175L315.1906 27.175L315.1906 24.6125L316.9406 23.55L316.9406 27.175L318.70624 27.175L318.70624 28.55L316.9406 28.55L316.9406 34.6125Q316.9406 35.3625 317.03436 35.58125Q317.1281 35.784374 317.33124 35.925Q317.55 36.05 317.9406 36.05Q318.22186 36.05 318.70624 35.971874ZM330.7375 37.55L330.7375 24.925L326.01874 24.925L326.01874 23.2375L337.3625 23.2375L337.3625 24.925L332.6281 24.925L332.6281 37.55L330.7375 37.55ZM338.84686 37.55L338.84686 27.175L340.425 27.175L340.425 28.753124Q341.03436 27.64375 341.55 27.3Q342.0656 26.940624 342.675 26.940624Q343.5656 26.940624 344.4875 27.503124L343.8781 29.14375Q343.2375 28.753124 342.59686 28.753124Q342.01874 28.753124 341.55 29.1125Q341.09686 29.45625 340.89374 30.065624Q340.6125 31.003124 340.6125 32.1125L340.6125 37.55L338.84686 37.55ZM352.64374 36.26875Q351.65936 37.096874 350.7531 37.440624Q349.84686 37.784374 348.8156 37.784374Q347.1125 37.784374 346.1906 36.95625Q345.26874 36.1125 345.26874 34.815624Q345.26874 34.05 345.6125 33.425Q345.97186 32.8 346.53436 32.425Q347.09686 32.034374 347.8 31.83125Q348.3156 31.70625 349.3625 31.565624Q351.4875 31.315624 352.4875 30.971874Q352.5031 30.6125 352.5031 30.503124Q352.5031 29.440624 352.0031 28.9875Q351.33124 28.39375 350.0031 28.39375Q348.7531 28.39375 348.15936 28.83125Q347.58124 29.26875 347.3 30.378124L345.58124 30.14375Q345.8156 29.034374 346.34686 28.3625Q346.8781 27.675 347.89374 27.315624Q348.90936 26.940624 350.2531 26.940624Q351.58124 26.940624 352.40936 27.253124Q353.2375 27.565624 353.6281 28.05Q354.01874 28.51875 354.175 29.2375Q354.26874 29.690624 354.26874 30.8625L354.26874 33.20625Q354.26874 35.659374 354.3781 36.315624Q354.4875 36.95625 354.83124 37.55L352.9875 37.55Q352.72186 37.003124 352.64374 36.26875ZM352.4875 32.346874Q351.53436 32.7375 349.6125 33.003124Q348.53436 33.159374 348.08124 33.3625Q347.64374 33.55 347.39374 33.925Q347.14374 34.3 347.14374 34.76875Q347.14374 35.471874 347.675 35.940624Q348.20624 36.409374 349.2375 36.409374Q350.2531 36.409374 351.03436 35.971874Q351.83124 35.51875 352.20624 34.753124Q352.4875 34.14375 352.4875 32.9875L352.4875 32.346874ZM356.8781 25.253124L356.8781 23.2375L358.64374 23.2375L358.64374 25.253124L356.8781 25.253124ZM356.8781 37.55L356.8781 27.175L358.64374 27.175L358.64374 37.55L356.8781 37.55ZM360.8625 37.55L360.8625 27.175L362.45624 27.175L362.45624 28.659374Q363.59686 26.940624 365.7531 26.940624Q366.6906 26.940624 367.47186 27.284374Q368.26874 27.6125 368.65936 28.159374Q369.05 28.70625 369.20624 29.45625Q369.3 29.95625 369.3 31.175L369.3 37.55L367.53436 37.55L367.53436 31.2375Q367.53436 30.159374 367.33124 29.628124Q367.1281 29.096874 366.59686 28.784374Q366.08124 28.471874 365.3781 28.471874Q364.2531 28.471874 363.4406 29.190624Q362.6281 29.89375 362.6281 31.878124L362.6281 37.55L360.8625 37.55ZM370.8781 25.253124L370.8781 23.2375L372.64374 23.2375L372.64374 25.253124L370.8781 25.253124ZM370.8781 37.55L370.8781 27.175L372.64374 27.175L372.64374 37.55L370.8781 37.55ZM374.8625 37.55L374.8625 27.175L376.45624 27.175L376.45624 28.659374Q377.59686 26.940624 379.7531 26.940624Q380.6906 26.940624 381.47186 27.284374Q382.26874 27.6125 382.65936 28.159374Q383.05 28.70625 383.20624 29.45625Q383.3 29.95625 383.3 31.175L383.3 37.55L381.53436 37.55L381.53436 31.2375Q381.53436 30.159374 381.33124 29.628124Q381.1281 29.096874 380.59686 28.784374Q380.08124 28.471874 379.3781 28.471874Q378.2531 28.471874 377.4406 29.190624Q376.6281 29.89375 376.6281 31.878124L376.6281 37.55L374.8625 37.55ZM384.55 38.409374L386.2531 38.659374Q386.3625 39.45625 386.84686 39.815624Q387.5031 40.3 388.64374 40.3Q389.8625 40.3 390.51874 39.815624Q391.1906 39.33125 391.425 38.45625Q391.5656 37.909374 391.55 36.190624Q390.39374 37.55 388.675 37.55Q386.53436 37.55 385.3625 36.003124Q384.1906 34.45625 384.1906 32.3Q384.1906 30.815624 384.72186 29.565624Q385.26874 28.315624 386.28436 27.628124Q387.3156 26.940624 388.6906 26.940624Q390.51874 26.940624 391.72186 28.425L391.72186 27.175L393.33124 27.175L393.33124 36.14375Q393.33124 38.565624 392.83124 39.565624Q392.34686 40.58125 391.26874 41.159374Q390.20624 41.753124 388.64374 41.753124Q386.8 41.753124 385.64374 40.925Q384.5031 40.096874 384.55 38.409374ZM386.0031 32.175Q386.0031 34.221874 386.8156 35.159374Q387.6281 36.096874 388.84686 36.096874Q390.05 36.096874 390.8625 35.159374Q391.6906 34.221874 391.6906 32.2375Q391.6906 30.33125 390.84686 29.3625Q390.0031 28.39375 388.8156 28.39375Q387.64374 28.39375 386.8156 29.346874Q386.0031 30.3 386.0031 32.175ZM405.22186 41.753124Q403.76874 39.925 402.76874 37.471874Q401.76874 35.003124 401.76874 32.3625Q401.76874 30.034374 402.51874 27.909374Q403.39374 25.440624 405.22186 22.9875L406.4875 22.9875Q405.3 25.01875 404.925 25.89375Q404.33124 27.2375 403.9875 28.70625Q403.5656 30.534374 403.5656 32.378124Q403.5656 37.065624 406.4875 41.753124L405.22186 41.753124ZM407.51874 37.55L413.01874 23.2375L415.0656 23.2375L420.925 37.55L418.76874 37.55L417.09686 33.20625L411.1125 33.20625L409.53436 37.55L407.51874 37.55ZM411.65936 31.675L416.5031 31.675L415.01874 27.70625Q414.33124 25.89375 414.0031 24.7375Q413.72186 26.1125 413.22186 27.471874L411.65936 31.675ZM422.03436 37.55L422.03436 23.2375L424.89374 23.2375L428.26874 33.3625Q428.7375 34.784374 428.95624 35.4875Q429.20624 34.70625 429.72186 33.190624L433.14374 23.2375L435.6906 23.2375L435.6906 37.55L433.8781 37.55L433.8781 25.565624L429.70624 37.55L428.0031 37.55L423.8625 25.3625L423.8625 37.55L422.03436 37.55ZM439.09686 37.55L439.09686 23.2375L444.4875 23.2375Q445.925 23.2375 446.675 23.3625Q447.72186 23.55 448.4406 24.05Q449.15936 24.534374 449.58124 25.425Q450.01874 26.315624 450.01874 27.378124Q450.01874 29.20625 448.84686 30.471874Q447.6906 31.721874 444.65936 31.721874L440.9875 31.721874L440.9875 37.55L439.09686 37.55ZM440.9875 30.034374L444.6906 30.034374Q446.51874 30.034374 447.28436 29.3625Q448.0656 28.675 448.0656 27.425Q448.0656 26.534374 447.6125 25.89375Q447.15936 25.253124 446.425 25.05Q445.9406 24.925 444.64374 24.925L440.9875 24.925L440.9875 30.034374ZM453.01874 41.753124L451.76874 41.753124Q454.675 37.065624 454.675 32.378124Q454.675 30.534374 454.26874 28.7375Q453.925 27.26875 453.33124 25.925Q452.95624 25.034374 451.76874 22.9875L453.01874 22.9875Q454.8625 25.440624 455.7375 27.909374Q456.4875 30.034374 456.4875 32.3625Q456.4875 35.003124 455.47186 37.471874Q454.47186 39.925 453.01874 41.753124Z" fill-rule="nonzero"/></svg>